<svg width="301" height="121" viewBox="0 0 301 121" fill="none" xmlns="http://www.w3.org/2000/svg">
<path d="M52.9603 95.89H0.820312V73.615L50.6503 2.49998H82.3303V71.635H94.8703V95.89H82.3303V118H52.9603V95.89ZM52.9603 71.635V33.685L26.3953 71.635H52.9603Z" fill="#48569D"/>
<path d="M150.679 120.145C144.519 120.145 138.634 119.21 133.024 117.34C127.524 115.36 122.684 112.115 118.504 107.605C114.324 102.985 110.969 96.935 108.439 89.455C106.019 81.865 104.809 72.46 104.809 61.24V56.29C104.809 45.84 106.019 37.04 108.439 29.89C110.969 22.74 114.324 17.02 118.504 12.73C122.684 8.32999 127.579 5.19498 133.189 3.32498C138.799 1.34498 144.739 0.35498 151.009 0.35498C157.719 0.35498 163.879 1.34498 169.489 3.32498C175.209 5.19498 180.104 8.32999 184.174 12.73C188.354 17.02 191.544 22.74 193.744 29.89C196.054 37.04 197.209 45.84 197.209 56.29V61.24C197.209 72.46 195.944 81.865 193.414 89.455C190.994 96.935 187.694 102.985 183.514 107.605C179.334 112.115 174.384 115.36 168.664 117.34C163.054 119.21 157.059 120.145 150.679 120.145ZM151.009 95.56C153.319 95.56 155.464 95.12 157.444 94.24C159.534 93.25 161.349 91.545 162.889 89.125C164.429 86.595 165.639 83.13 166.519 78.73C167.509 74.22 168.004 68.39 168.004 61.24V56.29C168.004 50.24 167.619 45.18 166.849 41.11C166.079 37.04 164.924 33.795 163.384 31.375C161.954 28.955 160.194 27.25 158.104 26.26C156.014 25.27 153.649 24.775 151.009 24.775C148.809 24.775 146.664 25.27 144.574 26.26C142.484 27.25 140.669 28.955 139.129 31.375C137.589 33.795 136.324 37.04 135.334 41.11C134.454 45.18 134.014 50.24 134.014 56.29V61.24C134.014 68.28 134.454 74.055 135.334 78.565C136.324 82.965 137.589 86.43 139.129 88.96C140.669 91.49 142.484 93.25 144.574 94.24C146.664 95.12 148.809 95.56 151.009 95.56Z" fill="#48569D"/>
<path d="M258.405 95.89H206.265V73.615L256.095 2.49998H287.775V71.635H300.315V95.89H287.775V118H258.405V95.89ZM258.405 71.635V33.685L231.84 71.635H258.405Z" fill="#48569D"/>
</svg>
