<svg width="46" height="52" viewBox="0 0 46 52" fill="none" xmlns="http://www.w3.org/2000/svg">
<path fill-rule="evenodd" clip-rule="evenodd" d="M41.8418 18.5796H43.0889C44.6962 18.5796 46.0001 19.882 46 21.4908V36.63C46 38.2373 44.6962 39.5412 43.0889 39.5412H41.8418V49.9049C41.8418 51.0279 40.9277 51.9418 39.8049 51.9418H6.19533C5.07141 51.9418 4.15845 51.0279 4.15845 49.9049V39.5411H2.91147C1.30364 39.5411 0 38.2366 0 36.6299V21.4902C0 19.8819 1.30364 18.5791 2.91147 18.5791H4.15845V2.03697C4.15845 0.914089 5.07141 0 6.19533 0H30.8078C30.8871 0 30.9657 0.0111786 31.0415 0.0291781C31.051 0.0317759 31.0601 0.0349846 31.0692 0.038196C31.078 0.0413085 31.0868 0.0444237 31.096 0.0469881C31.1657 0.0679243 31.2333 0.0968182 31.297 0.131491C31.3199 0.14428 31.3418 0.156501 31.3637 0.17109C31.4373 0.219025 31.5069 0.274539 31.5665 0.341232C31.5676 0.34307 31.5692 0.344187 31.5709 0.345393L31.5745 0.348337L41.5892 11.7879C41.7528 11.9738 41.8288 12.2085 41.8308 12.4475C41.8316 12.4537 41.8325 12.4598 41.8333 12.466C41.8376 12.4977 41.8418 12.5294 41.8418 12.5608V18.5796ZM29.7892 2.03697H6.19533V18.5795H39.8049V13.4768H30.8077C30.2456 13.4768 29.7892 13.0213 29.7892 12.4583V2.03697ZM6.19533 49.3528H39.8049V39.5412H6.19533V49.3528ZM12.0019 29.4944H15.8532V27.8763H12.0019V25.3623H16.3346V23.7375H9.99609V33.4726H12.0019V29.4944ZM17.625 33.4726H19.6309V23.7375H17.625V33.4726ZM23.5022 31.8613H27.7613V33.4726H21.4963V23.7375H23.5022V31.8613ZM30.9239 29.2537H34.7751V27.6824H30.9239V25.3623H35.4303V23.7375H28.918V33.4726H35.4437V31.8613H30.9239V29.2537Z" fill="#48569D"/>
</svg>
