<svg width="134" height="134" viewBox="0 0 134 134" fill="none" xmlns="http://www.w3.org/2000/svg">
<path d="M39.0178 68.6603C39.0178 65.052 36.5122 62.8984 32.0906 62.8984C30.2869 62.8984 29.0649 63.0724 28.4241 63.2468V74.8336C29.1817 75.0056 30.1129 75.0645 31.3902 75.0645C36.1077 75.0645 39.0178 72.6781 39.0178 68.6603Z" fill="#48569D"/>
<path d="M66.3855 63.0146C64.4039 63.0146 63.1262 63.1891 62.3667 63.3638V89.0356C63.1248 89.2129 64.3475 89.2129 65.4539 89.2129C73.4864 89.2691 78.7259 84.847 78.7259 75.4738C78.7848 67.3207 74.0099 63.0146 66.3855 63.0146Z" fill="#48569D"/>
<path d="M118.825 47.9312H115.608V32.4059C115.608 32.3091 115.592 32.2115 115.579 32.1135C115.574 31.497 115.378 30.8915 114.956 30.4117L89.1202 0.898684C89.1124 0.891142 89.1049 0.888466 89.0995 0.880194C88.9455 0.708194 88.766 0.565144 88.5762 0.441314C88.52 0.403605 88.4634 0.371978 88.4045 0.339378C88.24 0.249607 88.0656 0.175163 87.8861 0.121398C87.8374 0.107774 87.7936 0.0878248 87.745 0.0751741C87.5498 0.0289506 87.3472 0 87.1419 0H23.647C20.7475 0 18.3921 2.35813 18.3921 5.25514V47.93H15.1752C11.0274 47.93 7.66431 51.2916 7.66431 55.4408V94.4985C7.66431 98.6448 11.0274 102.009 15.1752 102.009H18.3923V128.745C18.3923 131.642 20.7478 134 23.6472 134H110.353C113.25 134 115.608 131.642 115.608 128.745V102.009H118.825C122.972 102.009 126.336 98.6448 126.336 94.4985V55.442C126.336 51.2931 122.972 47.9312 118.825 47.9312ZM23.647 5.25611H84.5144V32.1419C84.5144 33.5936 85.6921 34.7694 87.1419 34.7694H110.353V47.9329H23.647V5.25611ZM88.1554 75.1798C88.1554 82.6913 85.4202 87.8706 81.6305 91.0741C77.5018 94.5085 71.2132 96.1378 63.5313 96.1378C58.9333 96.1378 55.6741 95.8466 53.4592 95.5566V57.0168C56.719 56.494 60.9713 56.2028 65.454 56.2028C72.9013 56.2028 77.7344 57.5428 81.5201 60.3936C85.5934 63.4212 88.1554 68.2521 88.1554 75.1798ZM19.6328 95.7312V57.0168C22.3675 56.5536 26.2116 56.2028 31.6256 56.2028C37.0973 56.2028 40.9986 57.2508 43.6173 59.3479C46.1211 61.3261 47.8053 64.5868 47.8053 68.4292C47.8053 72.2728 46.5281 75.5325 44.1977 77.7432C41.1708 80.5964 36.6888 81.878 31.448 81.878C30.2856 81.878 29.2342 81.8189 28.4228 81.7021V95.7322H19.6328V95.7312ZM110.353 127.322H23.647V102.009H110.353V127.322H110.353ZM117.967 63.7708H102.886V72.736H116.975V79.9551H102.886V95.7315H93.9837V56.494H117.967V63.7708Z" fill="#48569D"/>
</svg>
