<svg width="134" height="134" viewBox="0 0 134 134" fill="none" xmlns="http://www.w3.org/2000/svg">
<path d="M68.3186 61.384C66.5149 61.384 65.2922 61.5573 64.6506 61.731V73.3172C65.4089 73.4917 66.3402 73.5506 67.6201 73.5506C72.3369 73.5506 75.2465 71.1632 75.2465 67.1464C75.2465 63.5373 72.7436 61.384 68.3186 61.384Z" fill="#48569D"/>
<path d="M41.4174 67.1464C41.4174 63.5373 38.9165 61.384 34.4917 61.384C32.6885 61.384 31.4653 61.5573 30.8237 61.731V73.3172C31.5818 73.4917 32.5145 73.5506 33.793 73.5506C38.5093 73.5506 41.4174 71.1632 41.4174 67.1464Z" fill="#48569D"/>
<path d="M118.825 47.9312H115.608V32.4059C115.608 32.3091 115.592 32.2115 115.579 32.1135C115.574 31.497 115.378 30.8915 114.956 30.4117L89.1202 0.898684C89.1124 0.891142 89.1049 0.888466 89.0995 0.880194C88.9455 0.708194 88.766 0.565144 88.5762 0.441314C88.52 0.403605 88.4634 0.371978 88.4045 0.339378C88.24 0.249607 88.0656 0.175163 87.8861 0.121398C87.8374 0.107774 87.7936 0.0878248 87.745 0.0751741C87.5498 0.0289506 87.3472 0 87.1419 0H23.647C20.7475 0 18.3921 2.35813 18.3921 5.25514V47.93H15.1752C11.0274 47.93 7.66431 51.2916 7.66431 55.4408V94.4985C7.66431 98.6448 11.0274 102.009 15.1752 102.009H18.3923V128.745C18.3923 131.642 20.7478 134 23.6472 134H110.353C113.25 134 115.608 131.642 115.608 128.745V102.009H118.825C122.972 102.009 126.336 98.6448 126.336 94.4985V55.442C126.336 51.2931 122.972 47.9312 118.825 47.9312ZM23.647 5.25611H84.5144V32.1419C84.5144 33.5936 85.6921 34.7694 87.1419 34.7694H110.353V47.9329H23.647V5.25611ZM84.0373 66.9133C84.0373 70.7562 82.7569 74.0149 80.4297 76.2268C77.3994 79.0776 72.9169 80.3604 67.6766 80.3604C66.5137 80.3604 65.4657 80.3001 64.6509 80.1858V94.2161H55.8597V55.5024C58.5961 55.0375 62.4405 54.6864 67.854 54.6864C73.3249 54.6864 77.2262 55.7352 79.8449 57.8316C82.349 59.8119 84.0373 63.0709 84.0373 66.9133ZM22.0323 94.2161V55.5024C24.769 55.0375 28.6131 54.6864 34.0266 54.6864C39.4982 54.6864 43.399 55.7352 46.0175 57.8316C48.5223 59.8119 50.2095 63.0711 50.2095 66.9135C50.2095 70.7564 48.9298 74.0152 46.6018 76.2271C43.572 79.0791 39.0895 80.3607 33.8495 80.3607C32.6863 80.3607 31.6383 80.3004 30.8223 80.186V94.2163H22.0323V94.2161ZM110.353 127.322H23.647V102.009H110.353V127.322H110.353ZM116.875 62.4308H106.163V94.2161H97.2568V62.4308H86.7188V54.9796H116.875V62.4308Z" fill="#48569D"/>
</svg>
