<svg width="133" height="134" viewBox="0 0 133 134" fill="none" xmlns="http://www.w3.org/2000/svg">
<path d="M61.0017 60.9517C59.2127 60.9517 57.9983 61.1268 57.3623 61.3025V72.8861C58.115 73.0608 59.0393 73.1197 60.3089 73.1197C64.9905 73.1197 67.8803 70.7309 67.8803 66.7165C67.8803 63.1064 65.394 60.9517 61.0017 60.9517Z" fill="#48569D"/>
<path d="M117.939 47.9312H114.745V32.4059C114.745 32.3091 114.73 32.2115 114.717 32.1135C114.712 31.497 114.517 30.8915 114.098 30.4117L88.4552 0.898684C88.4475 0.891142 88.44 0.888466 88.4347 0.880194C88.2818 0.708194 88.1036 0.565144 87.9153 0.441314C87.8595 0.403605 87.8033 0.371978 87.7448 0.339378C87.5816 0.249607 87.4085 0.175163 87.2303 0.121398C87.182 0.107774 87.1385 0.0878248 87.0902 0.0751741C86.8965 0.0289506 86.6954 0 86.4916 0H23.4706C20.5928 0 18.2549 2.35813 18.2549 5.25514V47.93H15.062C10.9452 47.93 7.60718 51.2916 7.60718 55.4408V94.4985C7.60718 98.6448 10.9452 102.009 15.062 102.009H18.2551V128.745C18.2551 131.642 20.593 134 23.4708 134H109.529C112.405 134 114.745 131.642 114.745 128.745V102.009H117.939C122.054 102.009 125.393 98.6448 125.393 94.4985V55.442C125.393 51.2931 122.054 47.9312 117.939 47.9312ZM23.4706 5.25611H83.8838V32.1419C83.8838 33.5936 85.0527 34.7694 86.4916 34.7694H109.529V47.9329H23.4706V5.25611ZM76.6028 66.4822C76.6028 70.3238 75.3318 73.5838 73.0221 75.7982C70.0156 78.6502 65.5666 79.9291 60.3688 79.9291C59.2127 79.9291 58.171 79.8729 57.3623 79.7559V93.7847H48.6379V55.0744C51.3551 54.6061 55.1676 54.2585 60.5412 54.2585C65.972 54.2585 69.8435 55.3053 72.4465 57.4022C74.9285 59.3805 76.6028 62.6412 76.6028 66.4822ZM21.0156 93.4938L21.9998 86.3337C23.2139 86.7417 24.7718 87.0342 26.5051 87.0342C30.2055 87.0342 32.5147 85.3433 32.5147 79.2316V54.5485H41.2963V79.3472C41.2963 90.5253 35.9792 94.4241 27.4294 94.4241C25.4088 94.4253 22.75 94.0789 21.0156 93.4938ZM109.529 127.322H23.4706V102.009H109.529V127.322H109.529ZM114.742 91.9813C112.028 92.9126 106.886 94.193 101.739 94.193C94.6358 94.193 89.4913 92.3881 85.9109 88.896C82.3275 85.5205 80.3603 80.3977 80.4202 74.6336C80.476 61.5932 89.8939 54.1419 102.666 54.1419C107.693 54.1419 111.566 55.1299 113.471 56.0624L111.622 63.164C109.483 62.2325 106.825 61.4757 102.549 61.4757C95.2114 61.4757 89.6674 65.6684 89.6674 74.1677C89.6674 82.2593 94.6921 87.0329 101.916 87.0329C103.938 87.0329 105.556 86.7994 106.249 86.4493V78.2412H100.239V71.3145H114.742V91.9813H114.742Z" fill="#48569D"/>
</svg>
