<svg width="133" height="134" viewBox="0 0 133 134" fill="none" xmlns="http://www.w3.org/2000/svg">
<path d="M117.939 47.9319H114.745V32.4044C114.745 32.3077 114.73 32.2101 114.717 32.1121C114.712 31.4955 114.517 30.8902 114.098 30.4104L88.4557 0.898643C88.4477 0.891067 88.4402 0.888379 88.4351 0.880314C88.2823 0.708259 88.1042 0.565043 87.9152 0.441379C87.8597 0.403742 87.8034 0.372215 87.745 0.339221C87.5819 0.249772 87.4085 0.175232 87.2305 0.12122C87.1819 0.107779 87.1385 0.0884713 87.0905 0.0752739C86.8967 0.0288387 86.6956 0 86.4921 0H23.4707C20.593 0 18.2551 2.35817 18.2551 5.255V47.9304H15.0614C10.9455 47.9304 7.60742 51.2916 7.60742 55.4407V94.4981C7.60742 98.6433 10.9455 102.009 15.0614 102.009H18.2551V128.745C18.2551 131.642 20.593 134 23.4707 134H109.529C112.405 134 114.745 131.642 114.745 128.745V102.009H117.939C122.054 102.009 125.393 98.645 125.393 94.4983V55.4422C125.393 51.2918 122.054 47.9319 117.939 47.9319ZM23.4707 5.255H83.8842V32.14C83.8842 33.5924 85.0527 34.7675 86.4921 34.7675H109.53V47.9316H23.4707V5.255ZM49.1971 54.9993H59.3075L62.7188 62.1601C63.8725 64.5444 64.7409 66.4669 65.6653 68.6796H65.7818C66.703 66.1765 67.4555 64.4291 68.4379 62.1601L71.7338 54.9993H81.7881L70.8091 74.1509L82.3647 94.2366H72.1944L68.671 87.1344C67.2263 84.3979 66.3009 82.3619 65.2025 80.0897H65.0866C64.2778 82.3619 63.2961 84.3979 62.0833 87.1344L58.8483 94.2366H48.7925L60.0612 74.3858L49.1971 54.9993ZM16.0293 62.4509V54.9996H45.9583V62.4509H35.3269V94.2344H26.489V62.4509H16.0293ZM109.53 127.321H23.4707V102.009H109.529V127.321H109.53ZM114.437 62.4509H103.805V94.2344H94.9649V62.4509H84.5054V54.9996H114.437V62.4509H114.437Z" fill="#48569D"/>
</svg>
