<svg width="133" height="134" viewBox="0 0 133 134" fill="none" xmlns="http://www.w3.org/2000/svg">
<path d="M117.939 47.9319H114.746V32.4044C114.746 32.3077 114.73 32.2101 114.717 32.1121C114.712 31.4955 114.518 30.8902 114.099 30.4104L88.4556 0.898643C88.4481 0.891067 88.4401 0.888379 88.435 0.880314C88.2824 0.708259 88.1041 0.565043 87.9156 0.441379C87.8596 0.403742 87.8035 0.372215 87.7448 0.339221C87.5818 0.249772 87.4086 0.175232 87.2303 0.12122C87.1821 0.107779 87.1389 0.0884713 87.0906 0.0752739C86.8966 0.0288387 86.6955 0 86.4922 0H23.4707C20.5928 0 18.2551 2.35817 18.2551 5.255V47.9304H15.0622C10.9452 47.9304 7.60718 51.2916 7.60718 55.4407V94.4981C7.60718 98.6433 10.9452 102.009 15.0622 102.009H18.2551V128.745C18.2551 131.642 20.5928 134 23.4707 134H109.53C112.405 134 114.746 131.642 114.746 128.745V102.009H117.939C122.054 102.009 125.393 98.645 125.393 94.4983V55.4422C125.393 51.2918 122.054 47.9319 117.939 47.9319ZM23.4707 5.255H83.8841V32.14C83.8841 33.5924 85.0528 34.7675 86.492 34.7675H109.53V47.9316H23.4707V5.255ZM86.05 72.8348C86.05 84.7802 78.8616 92.0211 68.2918 92.0211C57.563 92.0211 51.286 83.8603 51.286 73.4839C51.286 62.5651 58.2061 54.4042 68.8814 54.4042C79.985 54.4042 86.05 62.7804 86.05 72.8348ZM15.6084 91.2652V55.4869C18.6124 54.9993 22.5278 54.7288 26.6605 54.7288C33.5265 54.7288 37.9782 55.9725 41.4654 58.6198C45.2204 61.4311 47.5821 65.9177 47.5821 72.3485C47.5821 79.3211 45.0613 84.1308 41.5751 87.1034C37.7657 90.2928 31.9714 91.8051 24.8895 91.8051C20.6491 91.8053 17.6463 91.535 15.6084 91.2652ZM109.53 127.321H23.4707V102.009H109.53V127.321ZM109.924 85.159C112.392 85.159 115.129 84.6157 116.737 83.9695L117.972 90.4008C116.469 91.1603 113.09 91.9671 108.692 91.9671C96.1927 91.9671 89.7546 84.131 89.7546 73.7533C89.7546 61.325 98.5519 54.4042 109.494 54.4042C113.732 54.4042 116.953 55.2689 118.403 56.0265L116.738 62.5651C115.076 61.8632 112.769 61.2133 109.871 61.2133C103.381 61.2133 98.337 65.1596 98.337 73.2659C98.3358 80.5631 102.628 85.159 109.924 85.159Z" fill="#48569D"/>
<path d="M38.8899 72.619C38.9435 65.0506 34.5437 61.0515 27.5181 61.0515C25.6939 61.0515 24.5111 61.2131 23.8152 61.3763V85.2127C24.5109 85.3752 25.6393 85.3752 26.6591 85.3752C34.0614 85.428 38.8899 81.32 38.8899 72.619Z" fill="#48569D"/>
<path d="M59.9233 73.3198C59.9233 80.4567 63.25 85.4822 68.7212 85.4822C74.2475 85.4822 77.4118 80.1837 77.4118 73.1045C77.4118 66.5625 74.3011 60.9438 68.6676 60.9438C63.1445 60.9453 59.9233 66.2419 59.9233 73.3198Z" fill="#48569D"/>
</svg>
