<svg width="133" height="134" viewBox="0 0 133 134" fill="none" xmlns="http://www.w3.org/2000/svg">
<path d="M117.939 47.9311H114.745V32.4059C114.745 32.3091 114.73 32.2116 114.717 32.1136C114.712 31.497 114.517 30.8916 114.098 30.4116L88.4554 0.898643C88.4474 0.891067 88.4399 0.888379 88.4348 0.880314C88.282 0.708259 88.1039 0.565043 87.915 0.441379C87.8594 0.403742 87.8032 0.372215 87.7447 0.339221C87.5817 0.249772 87.4082 0.175232 87.2302 0.12122C87.1817 0.107779 87.1383 0.0879825 87.0902 0.0752739C86.8964 0.0288387 86.6953 0 86.4918 0H23.4704C20.5928 0 18.2549 2.35817 18.2549 5.255V47.9297H15.0617C10.945 47.9297 7.60693 51.2916 7.60693 55.4407V94.4981C7.60693 98.645 10.945 102.009 15.0617 102.009H18.2549V128.745C18.2549 131.642 20.5928 134 23.4704 134H109.529C112.404 134 114.745 131.642 114.745 128.745V102.009H117.938C122.054 102.009 125.392 98.645 125.392 94.4983V55.4422C125.393 51.2931 122.054 47.9311 117.939 47.9311ZM23.4704 5.25622H83.8839V32.1422C83.8839 33.5937 85.0524 34.7695 86.4918 34.7695H109.529V47.9329H23.4704V5.25622ZM78.426 54.6562V93.8927H69.585V54.6562H78.426ZM35.4903 61.9907V54.6562H63.7437V59.7804L45.6019 86.3262V86.5569H64.0338V93.8927H33.7574V89.1179L52.3057 62.2249V61.9907H35.4903V61.9907ZM109.529 127.322H23.4704V102.009H109.529V127.322H109.529ZM110.437 75.9059C107.433 78.7582 102.984 80.0369 97.7835 80.0369C96.6253 80.0369 95.5883 79.9807 94.7786 79.8636V93.8925H86.0547V55.1802C88.7696 54.7124 92.5821 54.3649 97.9555 54.3649C103.389 54.3649 107.258 55.4119 109.86 57.508C112.343 59.4869 114.019 62.7474 114.019 66.59C114.02 70.4319 112.748 73.6917 110.437 75.9059Z" fill="#48569D"/>
<path d="M98.4205 61.0593C96.6253 61.0593 95.4114 61.2346 94.7786 61.4103V72.9939C95.5271 73.1684 96.4543 73.2276 97.7263 73.2276C102.405 73.2276 105.295 70.8386 105.295 66.8241C105.296 63.2142 102.811 61.0593 98.4205 61.0593Z" fill="#48569D"/>
</svg>
