<svg width="134" height="134" viewBox="0 0 134 134" fill="none" xmlns="http://www.w3.org/2000/svg">
<path d="M54.3984 64.1147C53.0532 64.1147 52.1428 64.2462 51.667 64.3741V72.9993C52.232 73.1315 52.9244 73.174 53.8778 73.174C57.3907 73.174 59.5568 71.3958 59.5568 68.4036C59.5568 65.7192 57.6904 64.1147 54.3984 64.1147Z" fill="#48569D"/>
<path d="M118.826 47.9299H115.608V32.4044C115.608 32.3069 115.593 32.2101 115.58 32.1112C115.575 31.4948 115.378 30.8892 114.956 30.4102L89.1209 0.898643C89.1129 0.890334 89.1053 0.88789 89.1001 0.880314C88.9462 0.708259 88.7668 0.564554 88.5764 0.441379C88.5204 0.403009 88.4637 0.371482 88.4048 0.338977C88.2406 0.249772 88.0659 0.174743 87.8865 0.120732C87.8376 0.108023 87.7939 0.0879825 87.7455 0.0747851C87.5502 0.0288387 87.3476 0 87.1425 0H23.6473C20.748 0 18.3925 2.35817 18.3925 5.255V47.9297H15.1753C11.0277 47.9297 7.66455 51.2916 7.66455 55.44V94.4968C7.66455 98.6433 11.0277 102.009 15.1753 102.009H18.3925V128.745C18.3925 131.642 20.748 134 23.6473 134H110.353C113.25 134 115.608 131.642 115.608 128.745V102.009H118.826C122.972 102.009 126.336 98.645 126.336 94.4983V55.4422C126.336 51.2918 122.972 47.9299 118.826 47.9299ZM23.6473 5.255H84.515V32.14C84.515 33.5917 85.6923 34.7675 87.1425 34.7675H110.353V47.9309H23.6473V5.255ZM68.0985 64.8978V59.3474H90.5494V64.8978H82.5748V88.5607H75.9448V64.8978H68.0985ZM66.0976 68.2341C66.0976 71.0925 65.1469 73.5184 63.4124 75.1659C61.1572 77.2902 57.819 78.2462 53.9208 78.2462C53.0518 78.2462 52.2712 78.2025 51.6656 78.1143V88.5597H45.1206V59.7374C47.1579 59.3911 50.0196 59.1294 54.0499 59.1294C58.1264 59.1294 61.0286 59.91 62.9811 61.4694C64.8448 62.9446 66.0976 65.372 66.0976 68.2341ZM19.9376 88.5597V59.7374C21.9749 59.3911 24.8338 59.1294 28.8644 59.1294C32.9397 59.1294 35.8417 59.91 37.7937 61.4694C39.6577 62.9449 40.9136 65.372 40.9136 68.2316C40.9136 71.0901 39.9597 73.5172 38.2258 75.1647C35.9702 77.2889 32.635 78.2435 28.7329 78.2435C27.8687 78.2435 27.0842 78.1998 26.4774 78.1128V88.5583H19.9376V88.5597ZM110.353 127.321H23.6473V102.009H110.353V127.321H110.353ZM110.233 88.5597L107.587 83.2715C106.506 81.2342 105.809 79.7177 104.986 78.0282H104.901C104.295 79.7177 103.556 81.2342 102.648 83.2715L100.219 88.5597H92.6793L101.129 73.7767L92.9834 59.3474H100.566L103.122 64.6798C103.991 66.4561 104.641 67.8868 105.334 69.5338H105.421C106.114 67.6683 106.679 66.3681 107.415 64.6798L109.886 59.3474H117.43L109.193 73.6071L117.861 88.5597H110.233V88.5597Z" fill="#48569D"/>
<path d="M34.3691 68.4034C34.3691 65.7177 32.5048 64.1133 29.2101 64.1133C27.8691 64.1133 26.9541 64.2448 26.4775 64.3726V72.999C27.0433 73.1298 27.735 73.1738 28.6901 73.1738C32.2028 73.1738 34.3691 71.3965 34.3691 68.4034Z" fill="#48569D"/>
</svg>
