<svg width="133" height="134" viewBox="0 0 133 134" fill="none" xmlns="http://www.w3.org/2000/svg">
<path d="M117.94 47.9311H114.746V32.4059C114.746 32.3091 114.731 32.2116 114.72 32.1126C114.715 31.4967 114.519 30.8914 114.1 30.4116L88.4557 0.898643C88.4477 0.891067 88.4401 0.888379 88.435 0.880314C88.2822 0.708259 88.1042 0.565043 87.9152 0.441379C87.8597 0.403742 87.8034 0.372215 87.7449 0.338977C87.5819 0.249772 87.4085 0.174743 87.2304 0.120732C87.1819 0.108023 87.1385 0.0879825 87.0905 0.0752739C86.8967 0.0288387 86.6956 0 86.4921 0H23.4707C20.593 0 18.2551 2.35817 18.2551 5.255V47.9297H15.0619C10.9452 47.9297 7.60718 51.2916 7.60718 55.4407V94.4981C7.60718 98.6433 10.9452 102.009 15.0619 102.009H18.2551V128.745C18.2551 131.642 20.593 134 23.4707 134H109.529C112.405 134 114.745 131.642 114.745 128.745V102.009H117.939C122.054 102.009 125.393 98.645 125.393 94.4983V55.4422C125.393 51.2918 122.056 47.9311 117.94 47.9311ZM23.4707 5.255H83.8842V32.14C83.8842 33.5917 85.0526 34.7675 86.4921 34.7675H109.53V47.9309H23.4707V5.255ZM76.3074 76.9018C71.1833 75.1033 67.8397 72.2473 67.8397 67.7262C67.8397 62.4233 72.2327 58.3666 79.5113 58.3666C82.9876 58.3666 85.5521 59.1032 87.3808 59.9339L85.8257 65.6039C84.5908 65.0061 82.3943 64.1285 79.3738 64.1285C76.3533 64.1285 74.8891 65.5122 74.8891 67.1262C74.8891 69.1095 76.6286 69.9847 80.6089 71.506C86.0537 73.5358 88.617 76.394 88.617 80.7738C88.617 85.985 84.6352 90.4115 76.1687 90.4115C72.6456 90.4115 69.1678 89.4904 67.4286 88.5206L68.8459 82.7113C70.7229 83.6787 73.6069 84.6487 76.5803 84.6487C79.7866 84.6487 81.4774 83.3118 81.4774 81.2824C81.4786 79.3472 80.0144 78.2384 76.3074 76.9018ZM64.5041 84.0477V89.9516H45.2344V58.8705H52.2392V84.0477H64.5041ZM22.8594 89.9516H14.8967L23.8204 74.224L15.2157 58.8693H23.2257L25.9243 64.5417C26.8397 66.4324 27.5267 67.952 28.2597 69.707H28.3488C29.083 67.7238 29.6773 66.3405 30.4531 64.5417L33.0622 58.8693H41.0251L32.3294 74.038L41.484 89.9489H33.4302L30.637 84.3224C29.4947 82.1583 28.7619 80.5428 27.892 78.7443H27.801C27.1594 80.5428 26.3832 82.1583 25.4212 84.3224L22.8594 89.9516ZM109.53 127.322H23.4707V102.009H109.529V127.322H109.53ZM109.577 89.9516L106.784 84.3251C105.64 82.159 104.908 80.5455 104.038 78.7468H103.95C103.308 80.5455 102.529 82.159 101.566 84.3251L99.0066 89.9516H91.0415L99.9652 74.224L91.3609 58.8693H99.3707L102.073 64.5417C102.987 66.4324 103.672 67.952 104.406 69.707H104.497C105.228 67.7238 105.821 66.3405 106.601 64.5417L109.209 58.8693H117.174L108.478 74.038L117.631 89.9489H109.577V89.9516Z" fill="#48569D"/>
</svg>
