<svg width="25" height="28" viewBox="0 0 25 28" fill="none" xmlns="http://www.w3.org/2000/svg">
<path opacity="0.3" d="M9.89717 2.32935C10.5113 2.32935 11.0092 2.89141 11.0092 3.58475C11.0092 4.2781 10.5113 4.84016 9.89717 4.84016H4.44817C3.21984 4.84016 2.22408 5.96429 2.22408 7.35098V22.4159C2.22408 23.8026 3.21984 24.9267 4.44817 24.9267H17.7927C19.021 24.9267 20.0168 23.8026 20.0168 22.4159V19.9051C20.0168 19.2117 20.5146 18.6496 21.1288 18.6496C21.743 18.6496 22.2408 19.2117 22.2408 19.9051V22.4159C22.2408 25.1892 20.2493 27.4375 17.7927 27.4375H4.44817C1.99151 27.4375 0 25.1892 0 22.4159V7.35098C0 4.57761 1.99151 2.32935 4.44817 2.32935H9.89717Z" fill="#0B6093"/>
<path d="M5.56524 17.2653C5.56524 16.3077 5.38349 12.5289 8.02394 9.53089C9.80106 7.51323 12.4607 7.16327 15.6413 7.00368V1.84173C15.6413 1.16921 16.4582 0.836583 16.928 1.31777L24.4407 9.01231C24.7231 9.30154 24.7255 9.76254 24.4461 10.0547L16.9333 17.9093C16.4659 18.398 15.6413 18.0672 15.6413 17.3909V12.2564C13.6219 12.3191 12.1834 12.4642 10.8764 12.9336C8.32816 13.8488 6.82515 17.7998 6.43679 18.9468C6.37371 19.1331 6.20067 19.2601 6.00397 19.2601C5.75888 19.2601 5.56024 19.0616 5.56087 18.8165C5.56226 18.2847 5.56524 17.6553 5.56524 17.2653Z" fill="#0B6093"/>
</svg>
