<svg width="31" height="35" viewBox="0 0 31 35" fill="none" xmlns="http://www.w3.org/2000/svg">
<path d="M7.98777 17.4924C7.98777 16.5731 7.34943 16.0244 6.22293 16.0244C5.7634 16.0244 5.45208 16.0687 5.28882 16.1132V19.0651C5.48183 19.1089 5.71909 19.1239 6.04449 19.1239C7.24636 19.1239 7.98777 18.516 7.98777 17.4924Z" fill="white"/>
<path d="M14.9604 16.054C14.4555 16.054 14.13 16.0984 13.9365 16.1429V22.6833C14.1297 22.7285 14.4412 22.7285 14.7231 22.7285C16.7695 22.7428 18.1043 21.6162 18.1043 19.2282C18.1193 17.151 16.9029 16.054 14.9604 16.054Z" fill="white"/>
<path d="M28.3204 12.2114H27.5006V8.25602C27.5006 8.23135 27.4967 8.20649 27.4934 8.18152C27.4921 8.02446 27.4422 7.87019 27.3346 7.74796L20.7525 0.228957C20.7505 0.227035 20.7486 0.226354 20.7472 0.224246C20.708 0.180426 20.6622 0.143981 20.6139 0.112433C20.5995 0.102826 20.5851 0.0947685 20.5701 0.0864631C20.5282 0.0635922 20.4838 0.0446261 20.438 0.0309284C20.4256 0.0274575 20.4145 0.022375 20.4021 0.019152C20.3524 0.0073757 20.3007 0 20.2484 0H4.07189C3.3332 0 2.7331 0.600779 2.7331 1.33885V12.2111H1.91353C0.856822 12.2111 0 13.0675 0 14.1246V24.0753C0 25.1316 0.856822 25.9886 1.91353 25.9886H2.73317V32.8002C2.73317 33.5382 3.33326 34.139 4.07195 34.139H26.1619C26.8999 34.139 27.5007 33.5383 27.5007 32.8002V25.9886H28.3204C29.3768 25.9886 30.2338 25.1316 30.2338 24.0753V14.1249C30.2338 13.0679 29.3768 12.2114 28.3204 12.2114ZM4.07189 1.33909H19.579V8.18877C19.579 8.55861 19.8791 8.85816 20.2484 8.85816H26.1618V12.2118H4.07189V1.33909ZM20.5066 19.1535C20.5066 21.0672 19.8098 22.3867 18.8443 23.2029C17.7924 24.0778 16.1903 24.4929 14.2332 24.4929C13.0618 24.4929 12.2314 24.4187 11.6671 24.3448V14.5261C12.4976 14.3929 13.581 14.3187 14.723 14.3187C16.6204 14.3187 17.8517 14.6601 18.8162 15.3864C19.8539 16.1578 20.5066 17.3885 20.5066 19.1535ZM3.0492 24.3893V14.5261C3.74593 14.4081 4.72529 14.3187 6.10461 14.3187C7.49862 14.3187 8.49254 14.5857 9.1597 15.12C9.79761 15.624 10.2267 16.4547 10.2267 17.4336C10.2267 18.4129 9.9013 19.2433 9.30759 19.8066C8.53642 20.5335 7.39455 20.86 6.05936 20.86C5.76322 20.86 5.49534 20.8449 5.28863 20.8152V24.3896H3.0492V24.3893ZM26.1619 32.4378H4.07189V25.9886H26.1618V32.4378H26.1619ZM28.1017 16.2468H24.2596V18.5309H27.8491V20.3701H24.2596V24.3894H21.9915V14.3929H28.1017V16.2468Z" fill="white"/>
</svg>
