<svg width="17" height="20" viewBox="0 0 17 20" fill="none" xmlns="http://www.w3.org/2000/svg">
<path d="M4.47842 9.80636C4.47842 9.29099 4.12055 8.9834 3.48901 8.9834C3.23139 8.9834 3.05686 9.00824 2.96533 9.03316V10.6881C3.07354 10.7126 3.20655 10.7211 3.38898 10.7211C4.06277 10.7211 4.47842 10.3802 4.47842 9.80636Z" fill="#0B6093"/>
<path d="M8.38698 9C8.10396 9 7.92147 9.02491 7.81299 9.04986V12.7165C7.92126 12.7419 8.0959 12.7419 8.25394 12.7419C9.4012 12.7499 10.1496 12.1183 10.1496 10.7795C10.158 9.61503 9.47597 9 8.38698 9Z" fill="#0B6093"/>
<path d="M15.877 6.84595H15.4174V4.62849C15.4174 4.61466 15.4152 4.60073 15.4134 4.58672C15.4126 4.49867 15.3846 4.41219 15.3243 4.34366L11.6342 0.128358C11.6331 0.127281 11.6321 0.126898 11.6313 0.125717C11.6093 0.10115 11.5837 0.0807188 11.5566 0.0630322C11.5485 0.0576463 11.5404 0.0531291 11.532 0.048473C11.5085 0.0356511 11.4836 0.0250183 11.458 0.0173391C11.451 0.0153932 11.4448 0.0125439 11.4378 0.010737C11.41 0.00413497 11.381 0 11.3517 0H2.28278C1.86866 0 1.53223 0.336809 1.53223 0.750584V6.84577H1.07276C0.480352 6.84577 0 7.32592 0 7.91854V13.4971C0 14.0893 0.480352 14.5698 1.07276 14.5698H1.53227V18.3885C1.53227 18.8022 1.86869 19.139 2.28282 19.139H14.6669C15.0806 19.139 15.4174 18.8022 15.4174 18.3885V14.5698H15.877C16.4692 14.5698 16.9497 14.0893 16.9497 13.4971V7.91871C16.9497 7.32612 16.4692 6.84595 15.877 6.84595ZM2.28278 0.750723H10.9764V4.59079C10.9764 4.79813 11.1446 4.96606 11.3517 4.96606H14.6669V6.84619H2.28278V0.750723ZM11.4964 10.7378C11.4964 11.8107 11.1058 12.5504 10.5645 13.008C9.9748 13.4985 9.07661 13.7312 7.97942 13.7312C7.32269 13.7312 6.85717 13.6896 6.54083 13.6482V8.14363C7.00641 8.06896 7.61377 8.02737 8.25403 8.02737C9.31773 8.02737 10.008 8.21876 10.5487 8.62593C11.1305 9.05836 11.4964 9.74835 11.4964 10.7378ZM1.70945 13.6732V8.14363C2.10004 8.07747 2.64909 8.02737 3.42237 8.02737C4.20388 8.02737 4.76109 8.17706 5.13511 8.47658C5.49274 8.75912 5.73329 9.22484 5.73329 9.77364C5.73329 10.3226 5.55087 10.7882 5.21802 11.104C4.78569 11.5115 4.14554 11.6945 3.397 11.6945C3.23098 11.6945 3.0808 11.6861 2.96491 11.6694V13.6733H1.70945V13.6732ZM14.6669 18.1853H2.28278V14.5698H14.6669V18.1853H14.6669ZM15.7544 9.1083H13.6004V10.3888H15.6128V11.4199H13.6004V13.6732H12.3289V8.06896H15.7544V9.1083Z" fill="#0B6093"/>
</svg>
