<svg width="7" height="15" viewBox="0 0 7 15" fill="none" xmlns="http://www.w3.org/2000/svg">
<path d="M1.42264 2.73147C1.42264 3.08689 1.42264 4.6733 1.42264 4.6733H0V7.04777H1.42264V14.1039H4.34506V7.04796H6.30613C6.30613 7.04796 6.48979 5.90942 6.57882 4.66454C6.32358 4.66454 4.35611 4.66454 4.35611 4.66454C4.35611 4.66454 4.35611 3.28315 4.35611 3.04102C4.35611 2.79836 4.67474 2.47196 4.98966 2.47196C5.304 2.47196 5.96743 2.47196 6.5819 2.47196C6.5819 2.14867 6.5819 1.03164 6.5819 8.48193e-09C5.7616 8.48193e-09 4.82836 8.48193e-09 4.417 8.48193e-09C1.3504 -0.000163947 1.42264 2.37667 1.42264 2.73147Z" fill="white"/>
</svg>
