<svg width="46" height="52" viewBox="0 0 46 52" fill="none" xmlns="http://www.w3.org/2000/svg">
<path d="M43.0889 18.5796H41.8418V12.5608C41.8418 12.5233 41.8358 12.4855 41.8308 12.4475C41.8288 12.2085 41.7528 11.9738 41.5892 11.7879L31.5745 0.348337C31.5716 0.3454 31.5685 0.344358 31.5665 0.341232C31.5069 0.274539 31.4373 0.219025 31.3637 0.17109C31.3418 0.156501 31.3199 0.14428 31.297 0.131491C31.2333 0.0968182 31.1657 0.0679243 31.096 0.0469881C31.0772 0.0417777 31.0603 0.0342937 31.0415 0.0291781C30.9657 0.0111786 30.8871 0 30.8078 0H6.19533C5.07141 0 4.15845 0.914089 4.15845 2.03697V18.579H2.91147C1.30364 18.579 0 19.8819 0 21.4902V36.6299C0 38.2366 1.30364 39.5411 2.91147 39.5411H4.15845V49.9049C4.15845 51.0279 5.07141 51.9418 6.19533 51.9418H39.8049C40.9277 51.9418 41.8418 51.0279 41.8418 49.9049V39.5412H43.0889C44.6962 39.5412 46 38.2373 46 36.63V21.4908C46.0001 19.882 44.6962 18.5796 43.0889 18.5796ZM6.19533 2.03697H29.7892V12.4583C29.7892 13.0213 30.2456 13.4768 30.8077 13.4768H39.8049V18.5795H6.19533V2.03697ZM39.8049 49.3528H6.19533V39.5412H39.8049V49.3528Z" fill="white"/>
<path d="M15.8532 29.4942H12.0019V33.4725H9.99609V23.7374H16.3346V25.3622H12.0019V27.8762H15.8532V29.4942Z" fill="#48569D"/>
<path d="M19.6309 33.4725H17.625V23.7374H19.6309V33.4725Z" fill="#48569D"/>
<path d="M23.5022 31.8611H27.7613V33.4725H21.4963V23.7374H23.5022V31.8611Z" fill="#48569D"/>
<path d="M34.7751 29.2535H30.9239V31.8611H35.4437V33.4725H28.918V23.7374H35.4303V25.3622H30.9239V27.6823H34.7751V29.2535Z" fill="#48569D"/>
</svg>
