<svg width="14" height="12" viewBox="0 0 14 12" fill="none" xmlns="http://www.w3.org/2000/svg">
<path fill-rule="evenodd" clip-rule="evenodd" d="M2 0.944458C0.895431 0.944458 0 1.83989 0 2.94446V9.05557C0 10.1601 0.89543 11.0556 2 11.0556H12C13.1046 11.0556 14 10.1601 14 9.05557V2.94446C14 1.83989 13.1046 0.944458 12 0.944458H2ZM12.5692 2.61234C12.4164 2.32868 12.0627 2.22255 11.779 2.37529L7.00001 4.94859L2.22101 2.37529C1.93735 2.22255 1.58358 2.32868 1.43085 2.61234C1.27811 2.896 1.38424 3.24977 1.6679 3.4025L6.72345 6.12473C6.8961 6.21769 7.10391 6.21769 7.27657 6.12473L12.3321 3.4025C12.6158 3.24977 12.7219 2.896 12.5692 2.61234Z" fill="#2E4A8A"/>
</svg>
