<svg width="17" height="18" viewBox="0 0 17 18" fill="none" xmlns="http://www.w3.org/2000/svg">
<path d="M11.065 0.968384H6.89485C5.0366 0.968384 3.75027 1.37579 2.59252 2.33218C1.682 3.11774 1.13861 4.25942 1.13861 5.38629C1.13861 7.12246 2.46232 8.96753 4.91524 8.96753C5.15109 8.96753 5.41222 8.94333 5.64265 8.92184L5.6087 9.00437C5.5101 9.24058 5.41674 9.46342 5.41674 9.81124C5.41674 10.4884 5.74342 10.9061 6.05927 11.3098L6.099 11.3609L6.02839 11.3657C5.01547 11.4351 3.13013 11.5644 1.75297 12.4108C0.126412 13.3778 0 14.7846 0 15.1926C0 16.8157 1.5126 18.454 4.89213 18.454C8.82172 18.454 10.8779 16.286 10.8779 14.1446C10.8783 12.5607 9.9495 11.7787 8.96367 10.9486L8.13206 10.3017C7.87508 10.0888 7.55508 9.82388 7.55508 9.33304C7.55508 8.85051 7.87508 8.53195 8.15752 8.25096L8.18696 8.22116C9.08502 7.5138 10.1028 6.7118 10.1028 4.97708C10.1028 3.23296 9.01297 2.33164 8.4889 1.89841H9.87275C9.88972 1.89841 9.9067 1.89372 9.92078 1.88451L11.1128 1.13507C11.1468 1.11358 11.1627 1.07222 11.1515 1.03358C11.1408 0.99493 11.1051 0.968384 11.065 0.968384ZM6.00798 17.4985C3.61266 17.4985 2.00326 16.3798 2.00326 14.7146C2.00326 13.6272 2.66151 12.8372 3.95795 12.3675C4.99615 12.018 6.33629 12.0007 6.34965 12.0007C6.57665 12.0007 6.69078 12.0007 6.8721 12.0234C8.54813 13.2162 9.35392 13.8425 9.35392 15.0353C9.35373 16.5548 8.07156 17.4985 6.00798 17.4985ZM5.98541 8.32843C3.9751 8.32843 3.14079 5.68588 3.14079 4.27098C3.14079 3.55151 3.3044 2.99928 3.64102 2.5823C4.00634 2.12523 4.6319 1.82997 5.2347 1.82997C7.08049 1.82997 8.10118 4.31089 8.10118 6.02557C8.10118 6.29609 8.10118 7.11903 7.53269 7.69059C7.15038 8.07217 6.52862 8.32843 5.98541 8.32843Z" fill="white"/>
<path d="M16.9097 9.13515H14.7123V6.94552C14.7123 6.89568 14.6716 6.85522 14.622 6.85522H13.6768C13.6269 6.85522 13.5865 6.89568 13.5865 6.94552V9.13515H11.4001C11.3503 9.13515 11.3098 9.1756 11.3098 9.22544V10.1833C11.3098 10.2329 11.3503 10.2736 11.4001 10.2736H13.5865V12.4773C13.5865 12.527 13.6269 12.5676 13.6768 12.5676H14.622C14.6716 12.5676 14.7123 12.527 14.7123 12.4773V10.2732H16.9097C16.9595 10.2732 17 10.2329 17 10.1829V9.22544C17 9.17542 16.9597 9.13515 16.9097 9.13515Z" fill="white"/>
</svg>
