<svg width="11" height="11" viewBox="0 0 11 11" fill="none" xmlns="http://www.w3.org/2000/svg">
<path opacity="0.3" d="M3.77538 0.816674C3.83104 0.761014 3.90399 0.725954 3.98222 0.717261C4.17251 0.696119 4.3439 0.833234 4.36504 1.02352L4.72779 4.28821C4.73061 4.31365 4.73061 4.33933 4.72779 4.36477C4.70664 4.55505 4.53525 4.69217 4.34497 4.67102L1.08028 4.30828C1.00204 4.29959 0.929097 4.26453 0.873437 4.20887C0.738059 4.07349 0.738059 3.854 0.873437 3.71862L1.83416 2.75789L0.793184 1.71691C0.657806 1.58153 0.657806 1.36204 0.793184 1.22667L1.28343 0.736421C1.41881 0.601043 1.6383 0.601043 1.77367 0.736421L2.81466 1.7774L3.77538 0.816674Z" fill="#2E4A8A"/>
<path fill-rule="evenodd" clip-rule="evenodd" d="M5.31416 6.89867L6.84224 5.3706C7.26427 4.94856 7.3689 4.30382 7.10198 3.76999L7.0154 3.59683C6.74849 3.06299 6.85311 2.41825 7.27515 1.99622L9.16983 0.101533C9.30521 -0.0338444 9.5247 -0.0338444 9.66008 0.101533C9.68642 0.127879 9.70835 0.158301 9.72501 0.191627L10.4904 1.72243C11.076 2.8935 10.8464 4.30788 9.92061 5.2337L5.76155 9.39276C4.7538 10.4005 3.26316 10.7524 1.91112 10.3017L0.237128 9.74373C0.0554997 9.68318 -0.0426594 9.48687 0.0178833 9.30524C0.0349016 9.25418 0.0635731 9.20779 0.101627 9.16974L1.93979 7.33158C2.36182 6.90954 3.00656 6.80492 3.54039 7.07184L3.71356 7.15842C4.24739 7.42533 4.89213 7.32071 5.31416 6.89867Z" fill="#2E4A8A"/>
</svg>
