<svg width="12" height="6" viewBox="0 0 12 6" fill="none" xmlns="http://www.w3.org/2000/svg">
<path fill-rule="evenodd" clip-rule="evenodd" d="M10.3277 3.81507C10.7258 4.15844 11.1459 4.4815 11.5029 4.8595C11.6606 5.02747 11.8099 5.20081 11.9241 5.39575C12.086 5.67287 11.9394 5.97781 11.6582 5.99436L9.90998 5.99366C9.4591 6.02672 9.0994 5.86634 8.79696 5.59396C8.55491 5.37614 8.33077 5.14431 8.09803 4.91914C8.00262 4.8271 7.90275 4.7405 7.78345 4.67205C7.5448 4.53519 7.33765 4.57709 7.20127 4.79701C7.06237 5.02068 7.03086 5.26836 7.01722 5.51764C6.99849 5.88135 6.87406 5.97698 6.46055 5.99363C5.57684 6.03045 4.73814 5.91232 3.95903 5.51844C3.27213 5.17121 2.73947 4.68101 2.27585 4.12605C1.37317 3.04543 0.681895 1.858 0.0606041 0.637309C-0.0792435 0.362285 0.0230301 0.214654 0.366479 0.209429C0.93679 0.19964 1.50702 0.200337 2.07801 0.208732C2.3098 0.211728 2.46325 0.329192 2.55275 0.522666C2.8613 1.193 3.23885 1.83076 3.71277 2.42191C3.83897 2.5793 3.96766 2.73668 4.15092 2.84746C4.35365 2.97011 4.50801 2.92946 4.60338 2.72992C4.6639 2.6034 4.6904 2.46713 4.70404 2.33162C4.74922 1.86542 4.75518 1.40002 4.67593 0.935463C4.62728 0.64553 4.44244 0.457838 4.115 0.402973C3.94791 0.375 3.97279 0.320065 4.05369 0.235799C4.19421 0.090467 4.32637 0 4.58982 0H6.56555C6.87659 0.0542383 6.94566 0.177694 6.98824 0.454215L6.98994 2.39324C6.98655 2.50029 7.05046 2.81795 7.26869 2.88881C7.44335 2.93925 7.55848 2.81579 7.66327 2.71794C8.13632 2.27435 8.47393 1.75012 8.77555 1.20728C8.9094 0.968591 9.02449 0.720704 9.13603 0.473026C9.21867 0.289236 9.34834 0.198804 9.58266 0.20281L11.4842 0.204308C11.5406 0.204308 11.5976 0.20504 11.6522 0.213296C11.9726 0.261542 12.0604 0.383326 11.9615 0.659777C11.8056 1.09351 11.5022 1.45496 11.2055 1.81808C10.8884 2.20576 10.5493 2.58017 10.2348 2.97015C9.94586 3.32627 9.96881 3.50577 10.3277 3.81507Z" fill="white"/>
</svg>
