<svg width="22" height="22" viewBox="0 0 22 22" fill="none" xmlns="http://www.w3.org/2000/svg">
<path opacity="0.3" d="M11 9.77778C8.29991 9.77778 6.11108 7.58895 6.11108 4.88889C6.11108 2.18883 8.29991 0 11 0C13.7 0 15.8889 2.18883 15.8889 4.88889C15.8889 7.58895 13.7 9.77778 11 9.77778Z" fill="#2B64DB"/>
<path d="M0.000796503 21.0212C0.474538 15.1879 5.209 12.2222 10.9796 12.2222C16.8315 12.2222 21.6393 15.025 21.9975 21.0222C22.0117 21.2611 21.9975 21.9999 21.0793 21.9999C16.5503 21.9999 9.82022 21.9999 0.889169 21.9999C0.582648 21.9999 -0.0250088 21.3389 0.000796503 21.0212Z" fill="#2B64DB"/>
</svg>
