<svg width="16" height="14" viewBox="0 0 16 14" fill="none" xmlns="http://www.w3.org/2000/svg">
<path opacity="0.3" d="M5.67623 1.65248C5.75342 1.57529 5.85457 1.52667 5.96306 1.51462C6.22694 1.4853 6.46461 1.67544 6.49393 1.93931L6.99696 6.46654C7.00088 6.50183 7.00088 6.53743 6.99696 6.57272C6.96764 6.83659 6.72997 7.02673 6.46609 6.99741L1.93883 6.49438C1.83034 6.48233 1.72918 6.43371 1.65199 6.35652C1.46426 6.16879 1.46426 5.86442 1.65199 5.67669L2.98427 4.34442L1.5407 2.90086C1.35297 2.71313 1.35297 2.40876 1.5407 2.22103L2.22054 1.54119C2.40828 1.35346 2.71265 1.35346 2.90039 1.54119L4.34395 2.98475L5.67623 1.65248Z" fill="white"/>
<path fill-rule="evenodd" clip-rule="evenodd" d="M7.56945 9.20269L9.74603 7.16427C10.3472 6.60128 10.4962 5.74121 10.116 5.02909L9.99268 4.79809C9.61249 4.08597 9.76152 3.2259 10.3627 2.66292L13.0614 0.135443C13.2543 -0.0451477 13.5669 -0.0451477 13.7597 0.135443C13.7973 0.170589 13.8285 0.21117 13.8522 0.255626L14.9425 2.29768C15.7765 3.85988 15.4496 5.74663 14.1308 6.98165L8.20671 12.5297C6.77127 13.8741 4.64802 14.3435 2.72218 13.7423L0.337763 12.9979C0.0790533 12.9172 -0.0607637 12.6553 0.0254728 12.413C0.0497135 12.3449 0.090553 12.283 0.144757 12.2322L2.76301 9.78018C3.36415 9.21719 4.28252 9.07762 5.04291 9.43369L5.28956 9.54918C6.04995 9.90525 6.96831 9.76568 7.56945 9.20269Z" fill="white"/>
</svg>
