<svg width="158" height="47" viewBox="0 0 158 47" fill="none" xmlns="http://www.w3.org/2000/svg">
<path d="M37.4921 43.4201C29.5657 46.3726 20.9241 46.8214 12.7345 44.7057C11.5632 44.4018 10.3945 44.0447 9.22835 43.6343C8.29336 43.3019 7.36487 42.9318 6.44287 42.5241C8.09687 42.2763 9.59693 41.4148 10.6444 40.111C11.6919 38.8073 12.21 37.1568 12.0956 35.4883C13.398 34.6896 14.7841 34.0364 16.229 33.5404C18.0446 35.8445 20.241 37.8209 22.7233 39.3841C23.0116 39.5672 23.3038 39.7425 23.5998 39.9139L23.9894 40.1398C28.104 42.4518 32.7755 43.5866 37.4921 43.4201Z" fill="url(#paint0_linear)"/>
<path d="M20.608 12.4292C20.6241 13.7786 20.5093 15.1263 20.2652 16.4535C17.4189 16.8261 14.6543 17.6687 12.084 18.9468C11.6425 19.165 11.2075 19.3974 10.7789 19.6441C6.82413 21.9051 3.54099 25.1761 1.26548 29.1225C1.00576 29.5874 0.746046 30.0575 0.486328 30.5328C1.91731 21.3778 6.37181 12.9652 13.1398 6.63617C14.08 5.75313 15.0565 4.92203 16.0694 4.14288L16.5408 3.80005C15.9859 5.27495 15.9719 6.8988 16.5011 8.3831C17.0303 9.86739 18.0686 11.116 19.4315 11.9071C19.8063 12.1179 20.2002 12.2927 20.608 12.4292Z" fill="url(#paint1_linear)"/>
<path d="M33.4874 19.6403C33.4558 21.3086 33.2521 22.9692 32.8797 24.5957C32.4517 21.9978 31.0098 19.6759 28.8709 18.1404C28.601 17.9448 28.3214 17.7627 28.0333 17.595C27.2495 17.1389 26.4066 16.7928 25.5283 16.5666C25.5283 16.477 25.4933 16.3835 25.4777 16.29C25.2476 14.9874 25.1406 13.6661 25.1582 12.3435C26.4998 11.8282 27.6384 10.8925 28.4039 9.67617C29.1693 8.4599 29.5204 7.02849 29.4046 5.59607C31.8755 9.33913 33.2765 13.6863 33.4562 18.1677C33.4874 18.6586 33.4874 19.1494 33.4874 19.6403Z" fill="#CECAD1"/>
<path d="M45.4005 31.9664C44.2797 30.6092 42.6676 29.7504 40.9159 29.5774C39.1643 29.4045 37.4153 29.9313 36.0507 31.0431L35.5871 30.7821C34.6404 30.2336 33.7377 29.6123 32.8873 28.9238C34.0175 26.1729 34.6608 23.2465 34.7885 20.2752C34.8118 19.774 34.8196 19.2753 34.8118 18.7792C34.7457 13.9054 33.3078 9.14874 30.6628 5.05444C37.4217 10.6192 42.2318 18.1926 44.3954 26.676C44.7123 27.907 44.972 29.1498 45.1746 30.4042C45.2629 30.9236 45.3382 31.4444 45.4005 31.9664Z" fill="url(#paint2_linear)"/>
<path d="M45.7201 36.2167C45.7058 36.9874 45.5282 37.7463 45.1992 38.4434C44.8702 39.1405 44.3971 39.7599 43.8112 40.2609C43.2253 40.7618 42.5399 41.1328 41.8001 41.3495C41.0604 41.5662 40.2831 41.6237 39.5195 41.518C38.7559 41.4124 38.0234 41.1461 37.3703 40.7367C36.7171 40.3273 36.1582 39.7841 35.7303 39.1429C35.3024 38.5017 35.0153 37.7771 34.8879 37.0169C34.7605 36.2566 34.7956 35.478 34.9911 34.7324C34.7145 34.5571 34.4301 34.3817 34.1418 34.2142L33.9509 34.1051C32.997 33.5621 32.0033 33.092 30.9785 32.6988L30.6902 32.5897C31.3497 31.7956 31.8832 30.9047 32.2719 29.9484L32.4082 30.0535C33.2318 30.7011 34.1001 31.2895 35.0067 31.8144L35.1859 31.9157C35.5417 32.1183 35.9014 32.3105 36.265 32.4923C37.0112 31.6852 37.9837 31.1224 39.0553 30.8776C40.1268 30.6328 41.2473 30.7175 42.2699 31.1205C43.2925 31.5236 44.1695 32.2262 44.7858 33.1363C45.4022 34.0463 45.7292 35.1214 45.724 36.2206L45.7201 36.2167Z" fill="#1D2970"/>
<path d="M37.1376 42.0799C32.9767 42.1832 28.8588 41.2175 25.1776 39.275C24.8738 39.1165 24.5725 38.9503 24.2738 38.7763L23.9037 38.5581C22.5481 37.746 21.2747 36.804 20.1014 35.7454C22.5823 36.5091 25.2632 36.2743 27.5735 35.0909C28.3804 34.6756 29.1263 34.1512 29.7902 33.5326C29.9655 33.591 30.1369 33.6534 30.3084 33.7196C31.4279 34.1351 32.5097 34.646 33.5418 35.2467L33.6665 35.3208C33.4893 36.6287 33.7047 37.9598 34.2852 39.1452C34.8658 40.3305 35.7853 41.3167 36.9273 41.9786L37.1376 42.0799Z" fill="#CECAD1"/>
<path d="M16.5835 18.604C14.7198 20.1932 13.504 22.4112 13.1669 24.8372C12.9964 26.0622 13.0572 27.3084 13.3461 28.5109L13.1981 28.6356C12.1644 29.5125 11.0475 30.2862 9.86332 30.9458C8.83533 30.0404 7.5531 29.4742 6.1915 29.3243C4.8299 29.1744 3.4552 29.4482 2.25488 30.1082C2.31332 30.003 2.37176 29.8978 2.43409 29.7927C4.49548 26.2263 7.42665 23.2401 10.9541 21.1129C11.3697 20.8532 11.793 20.6142 12.2242 20.3961C13.6162 19.6597 15.0761 19.0595 16.5835 18.604Z" fill="#CECAD1"/>
<path d="M23.031 34.8104C27.7839 34.8104 31.6368 30.9575 31.6368 26.2046C31.6368 21.4518 27.7839 17.5989 23.031 17.5989C18.2782 17.5989 14.4253 21.4518 14.4253 26.2046C14.4253 30.9575 18.2782 34.8104 23.031 34.8104Z" fill="#1D2970"/>
<path d="M15.4811 32.5508L15.3798 32.5859C14.1657 33.0298 12.9925 33.5786 11.8736 34.226C11.5074 34.4364 11.1451 34.6662 10.7867 34.9C10.8547 35.2412 10.8899 35.5882 10.8919 35.9362C10.8916 36.1733 10.8759 36.4102 10.8451 36.6453V36.6842C10.8451 36.805 10.8101 36.9219 10.7867 37.0387C10.7176 37.3462 10.6224 37.6473 10.5023 37.9387C10.4633 38.0361 10.4205 38.1334 10.3776 38.2308C10.3348 38.3282 10.2841 38.4217 10.2335 38.5152L10.1712 38.6321V38.6633L10.1283 38.7334C10.0854 38.8074 10.0387 38.8814 9.99195 38.9516L9.96078 38.9944C9.31723 39.9386 8.3934 40.6567 7.31971 41.0476C6.24603 41.4384 5.0767 41.4822 3.9768 41.1727C2.8769 40.8632 1.90197 40.2161 1.18963 39.3227C0.477298 38.4293 0.0635326 37.3348 0.00674297 36.1936C-0.0500467 35.0524 0.253008 33.9222 0.873128 32.9625C1.49325 32.0028 2.39911 31.2621 3.46286 30.8449C4.5266 30.4278 5.69449 30.3552 6.80168 30.6375C7.90886 30.9199 8.89943 31.5428 9.63354 32.4184C9.99584 32.2353 10.3582 32.0288 10.7088 31.8379C11.7733 31.2279 12.7846 30.5294 13.7319 29.7498H13.7553C14.2697 30.7196 14.8461 31.6552 15.4811 32.5508Z" fill="#1D2970"/>
<path d="M10.7828 37.0504C10.7154 37.3541 10.6216 37.6513 10.5023 37.9386C10.6205 37.6509 10.7143 37.3538 10.7828 37.0504V37.0504Z" stroke="black" stroke-width="0.25" stroke-miterlimit="10"/>
<path d="M23.9933 11.4787C23.97 11.8786 23.9596 12.2799 23.9622 12.6824C23.9652 13.8728 24.0642 15.061 24.2582 16.2354V16.3289C23.3324 16.212 22.3946 16.2264 21.4728 16.3717C21.4728 16.3717 21.4728 16.3367 21.4728 16.3172C21.6812 15.1284 21.7907 13.9244 21.8 12.7175C21.8 12.3279 21.8 11.9384 21.7688 11.5254C20.442 11.2779 19.2541 10.5473 18.4348 9.47472C17.6154 8.40217 17.2229 7.06391 17.333 5.71872C17.4432 4.37352 18.0482 3.11695 19.0311 2.19196C20.014 1.26697 21.3049 0.739281 22.6543 0.710922C24.0037 0.682563 25.3157 1.15555 26.3366 2.03843C27.3575 2.9213 28.0147 4.15136 28.1813 5.49074C28.3479 6.83012 28.0119 8.18368 27.2383 9.28971C26.4648 10.3957 25.3086 11.1756 23.9933 11.4787Z" fill="#1D2970"/>
<path d="M4.52225 38.3867C6.29514 38.3867 7.73236 36.9494 7.73236 35.1765C7.73236 33.4036 6.29514 31.9664 4.52225 31.9664C2.74935 31.9664 1.31213 33.4036 1.31213 35.1765C1.31213 36.9494 2.74935 38.3867 4.52225 38.3867Z" fill="url(#paint3_radial)"/>
<path d="M21.1144 26.5825C22.8873 26.5825 24.3245 25.1452 24.3245 23.3723C24.3245 21.5994 22.8873 20.1622 21.1144 20.1622C19.3415 20.1622 17.9043 21.5994 17.9043 23.3723C17.9043 25.1452 19.3415 26.5825 21.1144 26.5825Z" fill="url(#paint4_radial)"/>
<path d="M22.2831 8.2724C24.056 8.2724 25.4932 6.83518 25.4932 5.06229C25.4932 3.28939 24.056 1.85217 22.2831 1.85217C20.5102 1.85217 19.073 3.28939 19.073 5.06229C19.073 6.83518 20.5102 8.2724 22.2831 8.2724Z" fill="url(#paint5_radial)"/>
<path d="M39.4245 38.6594C41.1974 38.6594 42.6346 37.2221 42.6346 35.4492C42.6346 33.6764 41.1974 32.2391 39.4245 32.2391C37.6516 32.2391 36.2144 33.6764 36.2144 35.4492C36.2144 37.2221 37.6516 38.6594 39.4245 38.6594Z" fill="url(#paint6_radial)"/>
<path d="M67.1429 21.9426H65.6235V11.1708H67.0143V19.5194L71.9853 11.1708H73.4852V21.9426H72.0983V13.5394L67.1429 21.9426Z" fill="black"/>
<path d="M82.683 17.0456H77.6458V21.9426H76.2083V11.1708H77.6458V15.7717H82.683V11.1708H84.105V21.9426H82.683V17.0456Z" fill="black"/>
<path d="M93.2951 17.0456H88.2579V21.9426H86.8203V11.1708H88.2579V15.7717H93.2951V11.1708H94.717V21.9426H93.2951V17.0456Z" fill="black"/>
<path d="M105.719 18.8182C105.684 19.4255 105.515 20.0175 105.224 20.5518C104.928 21.0489 104.482 21.4391 103.95 21.666C103.175 21.9628 102.348 22.0955 101.519 22.0556C100.676 22.0954 99.8336 21.9547 99.0491 21.6426C98.5131 21.4151 98.0639 21.0219 97.7674 20.5206C97.4833 19.981 97.3236 19.3847 97.3 18.7753C97.2584 18.0975 97.2363 17.3547 97.2337 16.5469C97.2311 15.7392 97.2532 14.999 97.3 14.3264C97.3279 13.7214 97.4874 13.1297 97.7674 12.5927C98.0542 12.0875 98.4991 11.6905 99.0336 11.463C99.8208 11.1625 100.662 11.0298 101.503 11.0734C102.345 11.0328 103.185 11.1654 103.973 11.463C104.509 11.6873 104.957 12.0815 105.247 12.585C105.531 13.1211 105.695 13.7127 105.726 14.3186C105.776 14.9912 105.801 15.7314 105.801 16.5392C105.801 17.3469 105.773 18.1066 105.719 18.8182ZM104.34 15.2341C104.328 14.9264 104.301 14.6195 104.258 14.3147C104.229 14.0977 104.181 13.8839 104.114 13.6758C104.059 13.5123 103.985 13.3555 103.895 13.2083C103.7 12.905 103.408 12.677 103.066 12.5616C102.56 12.4126 102.034 12.3468 101.507 12.3668C100.98 12.3474 100.454 12.4158 99.9491 12.5694C99.6076 12.6858 99.317 12.9171 99.1271 13.2239C99.0372 13.3711 98.964 13.5279 98.9089 13.6913C98.8418 13.8991 98.7962 14.1132 98.7726 14.3303C98.7414 14.5835 98.7141 14.8912 98.6985 15.2497C98.6829 15.6081 98.6752 16.0483 98.6752 16.5664C98.6752 17.0846 98.6752 17.5209 98.6985 17.8832C98.7219 18.2455 98.7414 18.5494 98.7803 18.8026C98.8088 19.0195 98.8571 19.2334 98.9245 19.4415C98.9801 19.6048 99.0532 19.7615 99.1427 19.909C99.329 20.2117 99.6158 20.4392 99.953 20.5518C100.459 20.6996 100.985 20.7654 101.511 20.7466C102.038 20.7677 102.564 20.7019 103.07 20.5518C103.411 20.4364 103.704 20.2084 103.899 19.9051C103.989 19.7579 104.063 19.6011 104.118 19.4376C104.185 19.227 104.234 19.0105 104.262 18.7909C104.305 18.4834 104.332 18.174 104.344 17.8637C104.359 17.5027 104.367 17.0638 104.367 16.5469C104.367 16.0301 104.358 15.5925 104.34 15.2341Z" fill="black"/>
<path d="M115.953 20.6726C115.738 21.0706 115.404 21.3919 114.999 21.592C114.578 21.7869 114.122 21.8943 113.658 21.9075C113.157 21.9283 112.653 21.9387 112.147 21.9387H108.325V11.1708H112.053C112.591 11.1708 113.11 11.1708 113.612 11.1708C114.068 11.1728 114.52 11.26 114.944 11.4279C115.331 11.5899 115.658 11.8692 115.879 12.2265C116.147 12.7298 116.27 13.2977 116.233 13.8666C116.246 14.4039 116.164 14.9392 115.992 15.4483C115.925 15.6521 115.816 15.8394 115.672 15.9979C115.527 16.1564 115.351 16.2825 115.154 16.3677C115.373 16.4526 115.571 16.584 115.733 16.7528C115.896 16.9217 116.02 17.1239 116.097 17.3456C116.249 17.8227 116.323 18.3214 116.315 18.8221C116.354 19.4597 116.229 20.0965 115.953 20.6726ZM114.636 13.1109C114.521 12.8889 114.328 12.7171 114.095 12.6278C113.805 12.523 113.499 12.4715 113.191 12.4759H111.94H109.743V15.7873H113.191C113.488 15.7946 113.783 15.7484 114.064 15.6509C114.302 15.5633 114.5 15.3915 114.621 15.1678C114.77 14.8424 114.837 14.4851 114.815 14.1277C114.836 13.7794 114.775 13.4311 114.636 13.1109ZM114.718 17.7858C114.612 17.5498 114.422 17.3621 114.184 17.2599C113.899 17.1471 113.595 17.089 113.288 17.0884C112.93 17.0884 112.509 17.0884 112.022 17.0884H109.743V20.6726H113.214C113.523 20.6808 113.829 20.6292 114.118 20.5206C114.365 20.418 114.568 20.2318 114.691 19.9947C114.845 19.6499 114.915 19.2732 114.893 18.8961C114.917 18.5138 114.857 18.1309 114.718 17.7741V17.7858Z" fill="black"/>
<path d="M124.765 18.9701H120.262L119.194 21.9426H117.69L121.843 11.1708H123.281L127.43 21.9387H125.872L124.765 18.9701ZM120.729 17.7274H124.313L122.521 12.9005L120.729 17.7274Z" fill="black"/>
<path d="M130.383 11.1669H128.98V21.9348H130.379V11.1669H130.383ZM135.447 21.9387H136.862V11.1669H135.463V19.5116L135.447 21.9387Z" fill="black"/>
<path d="M141.089 21.9426H139.569V11.1708H140.96V19.5194L145.931 11.1708H147.431V21.9426H146.044V13.5394L141.089 21.9426Z" fill="black"/>
<path d="M151.669 21.9426H150.15V11.1708H151.529V19.5194L156.5 11.1708H158V21.9426H156.613V13.5394L151.669 21.9426Z" fill="black"/>
<path d="M73.2242 32.0794C73.0352 32.4799 72.7224 32.8091 72.3321 33.0183C71.915 33.2298 71.4588 33.3531 70.9919 33.3806C70.4725 33.4221 69.905 33.4442 69.2895 33.4468H67.0611V38.0048H65.6274V27.2369H69.2934C69.9063 27.2369 70.4712 27.2564 70.988 27.2954C71.4536 27.3191 71.9095 27.437 72.3282 27.6421C72.7181 27.8404 73.0327 28.1604 73.2242 28.5537C73.4611 29.1065 73.569 29.7061 73.5397 30.3068C73.5683 30.9138 73.4605 31.5195 73.2242 32.0794ZM71.8996 29.2394C71.7766 29.0235 71.594 28.8477 71.3737 28.7329C71.0696 28.5936 70.7381 28.5243 70.4037 28.5303H69.2583H67.0611V32.1456H69.2583H70.4037C70.7381 32.1516 71.0696 32.0824 71.3737 31.943C71.5872 31.8279 71.7641 31.6552 71.884 31.4444C72.1737 30.7406 72.1737 29.9509 71.884 29.2472L71.8996 29.2394Z" fill="black"/>
<path d="M83.844 34.8804C83.8119 35.4914 83.6443 36.0876 83.3531 36.6257C83.0574 37.1228 82.6113 37.513 82.0792 37.7399C81.3046 38.0367 80.4768 38.1693 79.6482 38.1295C78.8049 38.1693 77.9628 38.0285 77.1783 37.7165C76.6428 37.4835 76.1963 37.0848 75.9044 36.579C75.6208 36.0406 75.461 35.4456 75.4369 34.8376C75.3954 34.1597 75.3733 33.4169 75.3707 32.6092C75.3681 31.8015 75.3902 31.0613 75.4369 30.3886C75.4619 29.7829 75.6187 29.1899 75.8966 28.6511C76.1834 28.1459 76.6282 27.7489 77.1627 27.5213C77.9499 27.2209 78.7912 27.0882 79.6327 27.1317C80.474 27.0911 81.3146 27.2237 82.1026 27.5213C82.6386 27.7457 83.0862 28.1399 83.3765 28.6433C83.6591 29.1797 83.8213 29.7714 83.8518 30.3769C83.9011 31.0496 83.9258 31.7898 83.9258 32.5975C83.9258 33.4052 83.8985 34.1662 83.844 34.8804ZM82.4649 31.2963C82.4535 30.9886 82.4262 30.6818 82.3831 30.3769C82.3547 30.16 82.3064 29.9461 82.2389 29.738C82.1839 29.5745 82.1107 29.4177 82.0208 29.2705C81.8254 28.9672 81.5328 28.7392 81.191 28.6238C80.6855 28.4749 80.1592 28.4091 79.6327 28.429C79.1056 28.4096 78.579 28.4781 78.0744 28.6316C77.7328 28.748 77.4423 28.9794 77.2523 29.2861C77.1624 29.4333 77.0893 29.5901 77.0342 29.7536C76.9671 29.9614 76.9214 30.1755 76.8978 30.3925C76.8667 30.6457 76.8394 30.9535 76.8238 31.3119C76.8082 31.6703 76.8004 32.1105 76.8004 32.6287C76.8004 33.1468 76.8004 33.5831 76.8238 33.9454C76.8472 34.3077 76.8667 34.6116 76.9056 34.8648C76.9341 35.0818 76.9823 35.2956 77.0498 35.5037C77.1053 35.667 77.1785 35.8238 77.2679 35.9712C77.4575 36.2783 77.7503 36.5076 78.0938 36.6179C78.5995 36.7657 79.1256 36.8315 79.6521 36.8127C80.1788 36.8339 80.7052 36.7681 81.2104 36.6179C81.5523 36.5025 81.8448 36.2745 82.0402 35.9712C82.1302 35.8241 82.2034 35.6672 82.2584 35.5037C82.3264 35.2931 82.3746 35.0766 82.4026 34.8571C82.4454 34.5496 82.4727 34.2401 82.4844 33.9299C82.4999 33.5689 82.5077 33.1299 82.5077 32.6131C82.5077 32.0963 82.4935 31.6573 82.4649 31.2963Z" fill="black"/>
<path d="M94.2614 36.5594C94.0976 36.9298 93.8381 37.2498 93.5095 37.4866C93.1432 37.7378 92.7275 37.9078 92.2901 37.9853C91.7417 38.0878 91.1845 38.1361 90.6267 38.1294C90.0111 38.14 89.3964 38.0772 88.7956 37.9424C88.3539 37.8444 87.9348 37.6633 87.5607 37.4087C87.2504 37.1927 86.9933 36.9089 86.8088 36.5789C86.6234 36.2348 86.492 35.8643 86.4192 35.4803C86.3353 35.0382 86.2871 34.59 86.2751 34.1401C86.2569 33.6545 86.2491 33.1428 86.2517 32.6052C86.2517 31.7975 86.2764 31.0573 86.3257 30.3846C86.3543 29.7765 86.5194 29.1827 86.8088 28.6471C87.111 28.1385 87.5705 27.742 88.1178 27.5173C88.9252 27.2167 89.7856 27.0841 90.6461 27.1278C91.204 27.1215 91.7611 27.1698 92.3096 27.2719C92.747 27.3493 93.1627 27.5194 93.529 27.7706C93.8527 28.0075 94.1058 28.328 94.2614 28.6978C94.4422 29.1575 94.527 29.6493 94.5107 30.1431H93.1238C93.1304 29.8674 93.0922 29.5924 93.0109 29.3289C92.9381 29.1111 92.7922 28.9253 92.5979 28.8029C92.3502 28.6572 92.0762 28.5619 91.7915 28.5224C91.3611 28.456 90.9258 28.426 90.4903 28.4328C89.9537 28.411 89.4176 28.4875 88.9086 28.6588C88.5523 28.7909 88.2542 29.0448 88.0671 29.3756C87.8646 29.7778 87.7516 30.219 87.736 30.669C87.6996 31.2014 87.6802 31.8507 87.6776 32.6169C87.675 33.3831 87.6944 34.0324 87.736 34.5648C87.7531 35.0146 87.866 35.4555 88.0671 35.8582C88.2506 36.1919 88.55 36.4469 88.9086 36.575C89.4188 36.7405 89.9543 36.8143 90.4903 36.7932C90.9255 36.7986 91.3604 36.7713 91.7915 36.7114C92.0764 36.6754 92.3509 36.5812 92.5979 36.4347C92.7922 36.3124 92.9381 36.1266 93.0109 35.9088C93.0921 35.6453 93.1303 35.3703 93.1238 35.0946H94.5107C94.5325 35.595 94.4475 36.0944 94.2614 36.5594Z" fill="black"/>
<path d="M102.633 35.0363H98.1298L97.0506 38.0087H95.5469L99.7153 27.2369H101.153L105.298 38.0048H103.74L102.633 35.0363ZM98.5973 33.7974H102.181L100.389 28.9706L98.5973 33.7974Z" fill="black"/>
<path d="M144.365 35.0363H139.842L138.763 38.0087H137.259L141.423 27.2408H142.861L147.029 38.0049H145.471L144.365 35.0363ZM140.329 33.7974H143.913L142.121 28.9706L140.329 33.7974Z" fill="black"/>
<path d="M109.615 38.0048H108.177V28.5109H104.819V27.2369H112.961V28.5109H109.603L109.615 38.0048Z" fill="black"/>
<path d="M122.521 34.8804C122.488 35.4917 122.319 36.0879 122.026 36.6257C121.731 37.1228 121.285 37.513 120.753 37.7399C119.978 38.0367 119.15 38.1693 118.322 38.1295C117.478 38.1693 116.636 38.0285 115.852 37.7165C115.316 37.4835 114.87 37.0848 114.578 36.579C114.294 36.0406 114.134 35.4456 114.11 34.8376C114.069 34.1597 114.047 33.4169 114.044 32.6092C114.041 31.8015 114.064 31.0613 114.11 30.3886C114.135 29.7829 114.292 29.1899 114.57 28.6511C114.857 28.1459 115.302 27.7489 115.836 27.5213C116.623 27.2209 117.465 27.0882 118.306 27.1317C119.147 27.0911 119.988 27.2237 120.776 27.5213C121.312 27.7457 121.76 28.1399 122.05 28.6433C122.332 29.1797 122.495 29.7714 122.525 30.3769C122.574 31.0496 122.599 31.7898 122.599 32.5975C122.599 33.4052 122.573 34.1662 122.521 34.8804ZM121.142 31.2963C121.131 30.9886 121.103 30.6818 121.06 30.3769C121.032 30.16 120.984 29.9461 120.916 29.738C120.861 29.5745 120.788 29.4177 120.698 29.2705C120.503 28.9672 120.21 28.7392 119.868 28.6238C119.363 28.4749 118.836 28.4091 118.31 28.429C117.783 28.4096 117.256 28.4781 116.752 28.6316C116.41 28.748 116.12 28.9794 115.93 29.2861C115.84 29.4333 115.766 29.5901 115.711 29.7536C115.644 29.9614 115.599 30.1755 115.575 30.3925C115.544 30.6457 115.517 30.9535 115.501 31.3119C115.485 31.6703 115.478 32.1105 115.478 32.6287C115.478 33.1468 115.478 33.5831 115.501 33.9454C115.524 34.3077 115.544 34.6116 115.583 34.8648C115.611 35.0818 115.66 35.2956 115.727 35.5037C115.783 35.667 115.856 35.8238 115.945 35.9712C116.135 36.2783 116.428 36.5076 116.771 36.6179C117.277 36.7657 117.803 36.8315 118.329 36.8127C118.856 36.8339 119.382 36.7681 119.888 36.6179C120.23 36.5025 120.522 36.2745 120.717 35.9712C120.807 35.8241 120.881 35.6672 120.936 35.5037C121.004 35.2931 121.052 35.0766 121.08 34.8571C121.123 34.5496 121.15 34.2401 121.162 33.9299C121.177 33.5689 121.185 33.1299 121.185 32.6131C121.185 32.0963 121.171 31.6573 121.142 31.2963Z" fill="black"/>
<path d="M134.345 29.3991L131.1 38.0048H129.713L126.468 29.3991V38.0048H125.112V27.2369H126.986L130.441 36.1972L133.866 27.2369H135.724V38.0048H134.353L134.345 29.3991Z" fill="black"/>
<path d="M135.44 20.731H130.293V21.9386H135.44V20.731Z" fill="black"/>
<path d="M138.019 20.731H136.858V23.197H138.019V20.731Z" fill="black"/>
<defs>
<linearGradient id="paint0_linear" x1="6.45845" y1="39.7853" x2="37.4922" y2="39.7853" gradientUnits="userSpaceOnUse">
<stop offset="0.09" stop-color="#BB1478"/>
<stop offset="0.91" stop-color="#2C217B"/>
</linearGradient>
<linearGradient id="paint1_linear" x1="19.6925" y1="4.57531" x2="4.1055" y2="31.573" gradientUnits="userSpaceOnUse">
<stop offset="0.02" stop-color="#BB1478"/>
<stop offset="0.78" stop-color="#2C217B"/>
</linearGradient>
<linearGradient id="paint2_linear" x1="35.8286" y1="31.0003" x2="40.1101" y2="6.72183" gradientUnits="userSpaceOnUse">
<stop offset="0.02" stop-color="#BB1478"/>
<stop offset="0.91" stop-color="#2C217B"/>
</linearGradient>
<radialGradient id="paint3_radial" cx="0" cy="0" r="1" gradientUnits="userSpaceOnUse" gradientTransform="translate(4.52225 35.1765) scale(3.21011)">
<stop stop-color="#6B88B9"/>
<stop offset="0.13" stop-color="#5870A7" stop-opacity="0.99"/>
<stop offset="0.38" stop-color="#384A89" stop-opacity="0.97"/>
<stop offset="0.57" stop-color="#243277" stop-opacity="0.95"/>
<stop offset="0.69" stop-color="#1D2970" stop-opacity="0.95"/>
</radialGradient>
<radialGradient id="paint4_radial" cx="0" cy="0" r="1" gradientUnits="userSpaceOnUse" gradientTransform="translate(21.1144 23.3723) scale(3.21011)">
<stop stop-color="#6B88B9"/>
<stop offset="0.13" stop-color="#5870A7" stop-opacity="0.99"/>
<stop offset="0.38" stop-color="#384A89" stop-opacity="0.97"/>
<stop offset="0.57" stop-color="#243277" stop-opacity="0.95"/>
<stop offset="0.69" stop-color="#1D2970" stop-opacity="0.95"/>
</radialGradient>
<radialGradient id="paint5_radial" cx="0" cy="0" r="1" gradientUnits="userSpaceOnUse" gradientTransform="translate(22.2831 5.06229) scale(3.21011)">
<stop stop-color="#6B88B9"/>
<stop offset="0.13" stop-color="#5870A7" stop-opacity="0.99"/>
<stop offset="0.38" stop-color="#384A89" stop-opacity="0.97"/>
<stop offset="0.57" stop-color="#243277" stop-opacity="0.95"/>
<stop offset="0.69" stop-color="#1D2970" stop-opacity="0.95"/>
</radialGradient>
<radialGradient id="paint6_radial" cx="0" cy="0" r="1" gradientUnits="userSpaceOnUse" gradientTransform="translate(39.4245 35.4492) scale(3.21011)">
<stop stop-color="#6B88B9"/>
<stop offset="0.13" stop-color="#5870A7" stop-opacity="0.99"/>
<stop offset="0.38" stop-color="#384A89" stop-opacity="0.97"/>
<stop offset="0.57" stop-color="#243277" stop-opacity="0.95"/>
<stop offset="0.69" stop-color="#1D2970" stop-opacity="0.95"/>
</radialGradient>
</defs>
</svg>
