<svg width="49" height="78" viewBox="0 0 49 78" fill="none" xmlns="http://www.w3.org/2000/svg">
<path d="M25.3113 0C30.3591 0 34.6497 0.822558 38.1832 2.46768C41.7888 4.04127 44.493 6.18707 46.2958 8.90509C48.0986 11.6231 49 14.6272 49 17.9175C49 20.8501 48.4592 23.3535 47.3775 25.4278C46.3679 27.5021 45.142 29.1829 43.6998 30.4704C42.2575 31.7579 40.3466 33.26 37.9669 34.9766C35.0824 36.9078 32.9551 38.6603 31.585 40.2338C30.2149 41.7359 29.5298 43.7029 29.5298 46.1348V48.8171H13.9536V45.4911C13.9536 42.1293 14.4584 39.304 15.468 37.0151C16.5497 34.6547 17.8116 32.8308 19.2539 31.5433C20.7682 30.1843 22.6431 28.718 24.8786 27.1444C27.0419 25.7139 28.6284 24.4622 29.638 23.3893C30.6475 22.3164 31.1523 20.9931 31.1523 19.4195C31.1523 17.4883 30.4673 15.9862 29.0971 14.9133C27.7991 13.8404 25.9603 13.304 23.5806 13.304C19.0375 13.304 14.819 15.4856 10.9249 19.8487L0 11.4801C6.56218 3.82668 14.9993 0 25.3113 0ZM21.9581 58.5805C24.6262 58.5805 26.8977 59.5461 28.7726 61.4773C30.7196 63.337 31.6932 65.5901 31.6932 68.2366C31.6932 70.9546 30.7196 73.2792 28.7726 75.2105C26.8977 77.0702 24.6262 78 21.9581 78C19.2899 78 16.9823 77.0702 15.0353 75.2105C13.1604 73.2792 12.223 70.9546 12.223 68.2366C12.223 65.5901 13.1604 63.337 15.0353 61.4773C16.9823 59.5461 19.2899 58.5805 21.9581 58.5805Z" fill="white"/>
</svg>
