<svg width="52" height="59" viewBox="0 0 52 59" fill="none" xmlns="http://www.w3.org/2000/svg">
<path d="M13.5698 7.48311C16.276 5.92066 18.8379 5.04562 21.2553 4.85797C23.6887 4.6086 25.8208 4.95339 27.6516 5.89233C29.4824 6.83128 30.9209 8.20681 31.9671 10.0189C32.8996 11.6341 33.4057 13.1802 33.4853 14.6575C33.6037 16.1124 33.4809 17.4176 33.1171 18.5731C32.7533 19.7286 32.2064 21.1473 31.4765 22.8294C30.5442 24.7858 29.9609 26.4094 29.7267 27.7002C29.4698 28.9515 29.728 30.2469 30.5013 31.5863L31.3542 33.0636L23.0035 37.8848L21.9459 36.053C20.877 34.2015 20.2492 32.4892 20.0627 30.9161C19.892 29.2813 19.9886 27.8862 20.3524 26.7307C20.7321 25.5134 21.2711 24.1255 21.9692 22.5669C22.6741 21.1095 23.1266 19.929 23.3267 19.0256C23.5268 18.1222 23.3766 17.2372 22.8763 16.3705C22.2622 15.3069 21.4173 14.6917 20.3416 14.5249C19.3045 14.3357 18.1481 14.6095 16.8723 15.346C14.4367 16.7522 12.8688 19.2595 12.1685 22.8678L3.65041 21.6403C4.7349 15.394 8.04136 10.6749 13.5698 7.48311ZM30.3994 40.7845C31.8298 39.9586 33.3547 39.7873 34.9739 40.2706C36.6091 40.6922 37.8475 41.6318 38.689 43.0893C39.5533 44.5863 39.7705 46.1679 39.3408 47.8342C38.9269 49.4388 38.0048 50.654 36.5744 51.4799C35.1439 52.3057 33.6111 52.5079 31.976 52.0863C30.3567 51.603 29.115 50.6129 28.2507 49.1159C27.4092 47.6583 27.1953 46.1273 27.6091 44.5227C28.0389 42.8564 28.969 41.6103 30.3994 40.7845Z" fill="white" fill-opacity="0.6"/>
</svg>
