<svg width="58" height="70" viewBox="0 0 58 70" fill="none" xmlns="http://www.w3.org/2000/svg">
<path d="M41.7393 8.34867C45.2043 9.86245 47.8999 11.7206 49.8261 13.9232C51.8235 16.0977 53.0285 18.3995 53.441 20.8284C53.8536 23.2574 53.5605 25.6148 52.5619 27.9007C51.6718 29.9381 50.5407 31.5152 49.1686 32.6319C47.846 33.7703 46.4944 34.5704 45.1136 35.0324C43.7328 35.4944 41.9651 35.9649 39.8106 36.4439C37.2444 36.9206 35.2523 37.5001 33.8342 38.1825C32.4378 38.8151 31.3705 39.9763 30.6324 41.6658L29.8183 43.5293L19.1262 38.8583L20.1357 36.5475C21.1561 34.2119 22.3601 32.4004 23.7478 31.113C25.2067 29.7975 26.6266 28.9088 28.0074 28.4468C29.4594 27.9568 31.1914 27.5003 33.2035 27.0775C35.1227 26.7324 36.5916 26.3385 37.6103 25.8959C38.6289 25.4532 39.3771 24.6853 39.8547 23.592C40.4408 22.2503 40.4265 21.0013 39.8116 19.845C39.2463 18.7104 38.1468 17.7862 36.5133 17.0726C33.3948 15.7102 29.8369 15.9608 25.8396 17.8243L20.8804 8.73393C27.7078 5.38467 34.6608 5.25625 41.7393 8.34867ZM21.6574 48.0418C23.4889 48.8419 24.7551 50.194 25.4559 52.0979C26.228 53.9739 26.2124 55.8311 25.4091 57.6698C24.5841 59.5581 23.2103 60.8812 21.2877 61.639C19.4362 62.3688 17.5947 62.3336 15.7632 61.5335C13.9317 60.7333 12.6299 59.3953 11.8579 57.5194C11.157 55.6154 11.2191 53.7193 12.0441 51.8309C12.8473 49.9923 14.1747 48.7081 16.0261 47.9783C17.9488 47.2205 19.8259 47.2416 21.6574 48.0418Z" fill="white" fill-opacity="0.6"/>
</svg>
