<svg width="147" height="119" viewBox="0 0 147 119" fill="none" xmlns="http://www.w3.org/2000/svg">
<path d="M104.012 119L77.8235 101.224C93.1412 80.3209 101.047 57.7718 101.541 33.5768L101.541 3.65526e-06L147 7.62939e-06L147 28.639C147 45.4274 143.047 62.0512 135.141 78.5104C127.071 94.9696 116.694 108.466 104.012 119ZM26.1882 119L1.55402e-06 101.224C15.3176 80.3209 23.2235 57.7718 23.7177 33.5768L23.7177 -3.14829e-06L69.1765 8.25845e-07L69.1765 28.639C69.1765 45.4274 65.2235 62.0512 57.3176 78.5104C49.2471 94.9696 38.8706 108.466 26.1882 119Z" fill="white" fill-opacity="0.6"/>
</svg>
