<svg width="457" height="78" viewBox="0 0 457 78" fill="none" xmlns="http://www.w3.org/2000/svg">
<g clip-path="url(#clip0)">
<path d="M48.0252 37.9171C48.6224 43.1678 44.8788 47.9013 39.6733 48.5052C34.4675 49.102 29.7633 45.3333 29.1701 40.0895C28.5729 34.8417 32.3126 30.0968 37.5197 29.5013C42.7276 28.9038 47.4318 32.6709 48.0252 37.9171Z" fill="#2A5AA8"/>
<path d="M25.4974 44.462C21.2639 51.7318 11.4252 94.0866 39.1262 71.3696C65.652 49.6235 75.5504 5.81895 76.4537 1.35C76.5074 1.10717 76.1744 0.745499 76.0327 1.19127C75.9408 1.47733 64.7656 32.1119 47.3212 52.3911C29.9933 72.5309 19.2719 69.9606 25.7906 44.5854C25.8327 44.4135 25.6183 44.2153 25.4974 44.462Z" fill="#2A5AA8"/>
<path d="M52.0303 33.5594C56.4475 26.3797 67.355 -15.7474 39.095 6.34882C12.0372 27.5018 1.02492 71.085 0.00675722 75.5323C-0.0506582 75.7791 0.2724 76.1516 0.423975 75.7058C0.527323 75.419 12.4735 45.0266 30.4254 25.1381C48.2472 5.39252 58.8995 8.20337 51.7419 33.4321C51.6921 33.6064 51.9041 33.8062 52.0303 33.5594Z" fill="#2A5AA8"/>
<path d="M88.2638 24.1025V33.4814H97.2803V24.1025H102.742V48.5006H97.2803V38.2919H88.2638V48.5006H82.7656V24.1025H88.2638Z" fill="#2A5AA8"/>
<path d="M119.681 38.1146L118.169 32.9361C117.738 31.4902 117.306 29.6795 116.95 28.2336H116.881C116.519 29.6795 116.159 31.5266 115.763 32.9361L114.328 38.1146H119.681ZM113.535 42.2434L111.813 48.5006H106.133L113.535 24.1025H120.724L128.23 48.5006H122.337L120.471 42.2434H113.535Z" fill="#2A5AA8"/>
<path d="M134.567 23.7055L138.09 32.2823C138.735 34.0212 139.24 35.471 139.775 36.9516H139.887C140.207 35.9067 140.603 34.2758 141.218 32.2075L143.84 23.7055H149.589L145.058 35.5389C143.587 39.3424 142.079 43.0339 140.28 45.2811C138.703 47.2667 136.689 48.5006 133.849 48.5006C132.59 48.5006 131.84 48.3549 131.152 48.1004L131.55 43.6856C131.978 43.7965 132.556 43.8698 133.344 43.8698C135.036 43.8698 136.188 42.7091 136.617 41.588C136.833 41.1916 136.722 40.8615 136.544 40.4627L128.389 23.7055H134.567Z" fill="#2A5AA8"/>
<path d="M157.573 24.1025V34.2395H158.04L164.725 24.1025H171.376L162.928 34.9297C166.052 35.7255 167.456 37.8963 168.463 40.8307C169.324 43.4341 170.116 46.0753 171.265 48.5006H165.372C164.547 46.8387 164.076 44.9579 163.498 43.1496C162.675 40.3972 161.565 38.2919 158.614 38.2919H157.573V48.5006H152.146V24.1025H157.573Z" fill="#2A5AA8"/>
<path d="M186.474 38.1146L184.964 32.9361C184.533 31.4902 184.103 29.6795 183.747 28.2336H183.672C183.315 29.6795 182.955 31.5266 182.557 32.9361L181.117 38.1146H186.474ZM180.329 42.2434L178.604 48.5006H172.928L180.329 24.1025H187.514L195.025 48.5006H189.133L187.269 42.2434H180.329Z" fill="#2A5AA8"/>
<path d="M211.284 24.1025V31.3438C211.284 35.255 211.207 39.1288 210.994 42.3862H211.143C212.397 39.5236 214.018 36.3023 215.45 33.6974L220.663 24.1025H226.27V48.5006H221.239V41.301C221.239 37.5362 221.308 34.2024 221.631 31.0198H221.525C220.406 33.9155 218.868 37.1368 217.428 39.707L212.505 48.5006H206.253V24.1025H211.284Z" fill="#2A5AA8"/>
<path d="M244.072 24.1025V31.3438C244.072 35.255 243.995 39.1288 243.78 42.3862H243.929C245.181 39.5236 246.796 36.3023 248.234 33.6974L253.447 24.1025H259.048V48.5006H254.02V41.301C254.02 37.5362 254.094 34.2024 254.421 31.0198H254.31C253.195 33.9155 251.654 37.1368 250.212 39.707L245.289 48.5006H239.039V24.1025H244.072Z" fill="#2A5AA8"/>
<path d="M269.7 24.1025V33.4814H278.717V24.1025H284.181V48.5006H278.717V38.2919H269.7V48.5006H264.199V24.1025H269.7Z" fill="#2A5AA8"/>
<path d="M294.832 24.1025V33.4814H303.849V24.1025H309.315V48.5006H303.849V38.2919H294.832V48.5006H289.331V24.1025H294.832Z" fill="#2A5AA8"/>
<path d="M319.128 35.9786C319.128 40.7559 321.358 44.1242 325.025 44.1242C328.731 44.1242 330.851 40.5747 330.851 35.8319C330.851 31.4518 328.756 27.6862 324.986 27.6862C321.29 27.6862 319.128 31.2358 319.128 35.9786ZM336.633 35.6506C336.633 43.6508 331.816 48.5006 324.741 48.5006C317.554 48.5006 313.349 43.0339 313.349 36.0863C313.349 28.772 317.984 23.3098 325.133 23.3098C332.57 23.3098 336.633 28.9161 336.633 35.6506Z" fill="#2A5AA8"/>
<path d="M346.024 44.341C346.561 44.4097 347.208 44.4097 348.143 44.4097C350.624 44.4097 352.809 43.4726 352.809 40.8984C352.809 38.4362 350.624 37.4629 347.886 37.4629H346.024V44.341ZM346.024 33.5146H347.816C350.692 33.5146 352.237 32.3208 352.237 30.5109C352.237 28.664 350.836 27.6862 348.358 27.6862C347.171 27.6862 346.491 27.7632 346.024 27.8327V33.5146ZM340.594 24.1773C342.036 23.8867 344.941 23.6683 347.676 23.6683C351.02 23.6683 353.07 23.9984 354.824 25.0449C356.517 25.9511 357.738 27.613 357.738 29.8207C357.738 31.9954 356.48 34.0235 353.746 35.0377V35.107C356.517 35.8682 358.561 37.9642 358.561 41.116C358.561 43.3231 357.558 45.0659 356.047 46.295C354.285 47.7072 351.339 48.5006 346.524 48.5006C343.825 48.5006 341.821 48.3241 340.594 48.1382V24.1773Z" fill="#2A5AA8"/>
<path d="M374.348 38.1146L372.839 32.9361C372.402 31.4902 371.971 29.6795 371.614 28.2336H371.545C371.183 29.6795 370.826 31.5266 370.428 32.9361L368.986 38.1146H374.348ZM368.202 42.2434L366.477 48.5006H360.798L368.202 24.1025H375.382L382.896 48.5006H377.009L375.138 42.2434H368.202Z" fill="#2A5AA8"/>
<path d="M392.002 24.1024V43.9777H400.48V24.1024H405.94V44.1597L408.386 44.3025L408.133 54.693H403.965L403.678 48.5006H386.505V24.1024H392.002Z" fill="#2A5AA8"/>
<path d="M416.842 24.1025V31.3438C416.842 35.255 416.772 39.1288 416.556 42.3862H416.697C417.955 39.5236 419.576 36.3023 421.015 33.6974L426.222 24.1025H431.827V48.5006H426.798V41.301C426.798 37.5362 426.865 34.2024 427.192 31.0198H427.086C425.969 33.9155 424.425 37.1368 422.986 39.707L418.067 48.5006H411.81V24.1025H416.842Z" fill="#2A5AA8"/>
<path d="M442.007 24.1025V31.3438C442.007 35.255 441.933 39.1288 441.719 42.3862H441.864C443.122 39.5236 444.737 36.3023 446.176 33.6974L451.383 24.1025H456.992V48.5006H451.963V41.301C451.963 37.5362 452.037 34.2024 452.357 31.0198H452.245C451.134 33.9155 449.59 37.1368 448.151 39.707L443.232 48.5006H436.977V24.1025H442.007Z" fill="#2A5AA8"/>
</g>
<defs>
<clipPath id="clip0">
<rect width="457" height="78" fill="white"/>
</clipPath>
</defs>
</svg>
