<?xml version="1.0" standalone="no"?>
<!DOCTYPE svg PUBLIC "-//W3C//DTD SVG 20010904//EN"
 "http://www.w3.org/TR/2001/REC-SVG-20010904/DTD/svg10.dtd">
<svg version="1.0" xmlns="http://www.w3.org/2000/svg"
 width="1019.000000pt" height="1019.000000pt" viewBox="0 0 1019.000000 1019.000000"
 preserveAspectRatio="xMidYMid meet">
<metadata>
Created by potrace 1.11, written by Peter Selinger 2001-2013
</metadata>
<g transform="translate(0.000000,1019.000000) scale(0.100000,-0.100000)"
fill="#000000" stroke="none">
<path d="M4970 10138 c-151 -15 -351 -73 -460 -135 -80 -46 -116 -68 -128 -80
-8 -7 -23 -18 -35 -24 -30 -17 -136 -116 -200 -189 -73 -82 -170 -251 -207
-360 -12 -36 -25 -72 -28 -80 -8 -23 -10 -33 -17 -65 -3 -16 -8 -41 -11 -55
-26 -126 -23 -389 6 -465 6 -17 11 -31 10 -33 -5 -8 13 -83 21 -88 5 -3 9 -16
9 -29 0 -13 5 -27 11 -30 6 -4 8 -13 5 -21 -3 -8 -1 -14 5 -14 6 0 8 -4 5 -9
-4 -5 -3 -11 1 -13 5 -1 24 -34 43 -73 31 -63 85 -152 100 -165 3 -3 17 -21
32 -41 27 -37 130 -143 164 -169 32 -25 127 -94 149 -107 93 -58 245 -120 348
-143 31 -7 58 -18 58 -24 1 -6 3 -54 5 -106 2 -52 4 -96 5 -97 1 -3 1 -72 0
-76 -1 -1 -3 -70 -7 -152 -5 -156 -12 -280 -14 -280 -1 0 -4 -18 -6 -40 -11
-105 -12 -120 -14 -120 -1 0 -3 -13 -4 -30 -1 -16 -5 -36 -9 -42 -5 -8 -3 -13
5 -13 9 0 9 -3 2 -8 -6 -4 -10 -17 -9 -29 1 -13 -1 -23 -4 -23 -3 0 -7 -12 -8
-26 -1 -28 -7 -28 130 -10 15 2 30 -1 33 -6 3 -5 11 -5 18 2 18 14 346 13 417
-2 14 -3 21 46 10 67 -3 6 -6 19 -7 30 -2 23 -13 122 -20 175 -18 131 -26 294
-28 547 l-2 252 123 42 c68 23 123 46 123 50 0 5 7 9 14 9 23 0 163 84 225
135 45 36 191 180 191 188 0 4 8 16 18 26 28 32 39 46 52 72 7 13 16 26 20 29
21 16 121 245 136 313 1 4 2 8 4 10 2 2 5 17 13 57 5 23 9 48 22 125 8 47 4
300 -5 300 -1 0 -3 14 -5 30 -5 46 -45 199 -56 211 -5 7 -9 16 -7 20 3 12 -82
188 -93 192 -5 2 -7 8 -3 13 3 5 1 9 -3 9 -5 0 -17 16 -27 35 -11 19 -23 35
-28 35 -4 0 -8 5 -8 12 0 14 -8 24 -116 133 -80 82 -172 152 -254 196 -25 13
-46 27 -48 32 -2 4 -8 7 -13 7 -5 0 -28 9 -52 19 -38 17 -73 32 -87 36 -25 8
-97 29 -105 31 -146 35 -272 45 -405 32z"/>
<path d="M3595 9388 c-44 -33 -82 -63 -85 -67 -3 -3 -23 -19 -45 -36 -22 -16
-45 -34 -51 -40 -7 -5 -29 -23 -49 -40 -21 -16 -43 -34 -49 -40 -6 -5 -43 -37
-81 -70 -39 -33 -75 -64 -81 -70 -6 -5 -42 -37 -79 -70 -164 -144 -419 -395
-595 -585 -58 -63 -116 -126 -130 -141 -14 -15 -45 -51 -70 -80 -25 -29 -54
-63 -65 -75 -11 -13 -31 -38 -45 -55 -14 -18 -32 -40 -41 -48 -8 -9 -33 -38
-55 -66 -21 -27 -43 -55 -49 -61 -5 -7 -28 -35 -50 -64 -22 -29 -48 -61 -57
-72 -10 -10 -18 -20 -18 -23 0 -3 -22 -33 -49 -68 -114 -146 -451 -643 -451
-666 0 -5 -4 -11 -8 -13 -12 -4 -127 -201 -124 -210 1 -5 -2 -8 -7 -8 -5 0
-22 -26 -38 -57 -15 -32 -31 -60 -34 -63 -3 -3 -25 -41 -48 -85 -24 -44 -48
-86 -53 -92 -6 -7 -7 -13 -4 -13 4 0 -1 -12 -12 -27 -25 -37 -192 -377 -192
-392 0 -6 -5 -11 -11 -11 -5 0 -8 -4 -4 -9 3 -5 -2 -17 -11 -25 -8 -9 -13 -16
-10 -16 2 0 -20 -55 -51 -122 -30 -68 -64 -145 -74 -173 -11 -27 -24 -59 -29
-70 -26 -57 -160 -409 -165 -437 -2 -9 -15 -44 -28 -77 -14 -33 -21 -58 -16
-56 4 3 1 -8 -7 -25 -8 -16 -16 -39 -17 -50 -1 -11 -4 -20 -7 -20 -5 0 -28
-72 -31 -98 0 -4 -7 -22 -15 -41 -8 -18 -11 -37 -8 -42 3 -5 0 -9 -7 -9 -7 0
-10 -3 -6 -6 3 -3 -1 -23 -8 -44 -7 -21 -11 -41 -8 -44 4 -3 1 -6 -6 -6 -7 0
-9 -4 -6 -10 3 -5 -1 -22 -9 -38 -8 -16 -13 -32 -10 -35 3 -3 1 -14 -4 -24 -6
-10 -12 -31 -16 -48 -6 -36 -16 -75 -23 -95 -3 -8 -7 -24 -9 -35 -2 -11 -12
-56 -24 -100 -11 -44 -23 -91 -25 -105 -2 -14 -7 -36 -11 -50 -3 -14 -7 -32
-8 -40 -1 -9 -5 -21 -10 -28 -4 -6 -5 -12 -3 -12 3 0 -2 -28 -9 -62 -8 -35
-17 -79 -19 -98 -3 -19 -8 -42 -10 -50 -7 -25 -17 -83 -20 -115 -1 -16 -3 -30
-4 -30 -2 0 -4 -9 -5 -20 -1 -11 -6 -38 -10 -60 -4 -22 -6 -38 -3 -35 8 8 106
194 109 207 1 5 6 13 10 18 16 18 138 229 138 237 0 4 5 8 10 8 6 0 10 4 10 9
0 9 168 263 219 331 43 57 45 60 153 195 125 157 133 166 181 217 20 22 37 42
37 45 0 9 389 393 460 455 36 31 99 84 140 118 41 34 84 70 95 79 11 9 36 27
55 41 19 13 37 27 40 30 3 3 23 19 45 35 22 17 42 32 45 35 3 4 29 21 57 40
29 18 53 37 53 42 0 5 4 7 9 4 5 -4 11 -3 13 2 1 4 32 27 68 50 36 23 70 45
75 50 25 20 242 149 345 205 64 35 364 187 368 187 1 0 16 7 32 15 16 8 31 15
32 15 6 -2 84 31 110 46 15 8 29 14 30 13 3 -1 33 11 83 32 108 46 505 179
534 179 9 0 21 4 26 9 11 10 379 99 485 117 185 32 316 51 323 47 4 -2 8 5 8
16 1 12 2 24 3 29 7 29 16 85 22 127 3 28 8 59 10 70 2 11 7 49 10 85 3 36 7
81 10 100 7 64 17 264 18 369 l1 104 -65 27 c-96 39 -143 62 -162 78 -10 8
-18 12 -18 7 0 -4 -16 5 -35 19 -19 15 -35 25 -35 22 0 -3 -8 1 -17 9 -10 7
-47 35 -83 61 -96 71 -250 232 -316 331 -33 49 -62 90 -65 93 -21 19 -142 304
-153 363 -2 12 -10 45 -16 72 -19 82 -20 87 -27 160 -21 214 -2 404 62 613 9
30 15 55 13 57 -2 2 -39 -24 -83 -57z"/>
<path d="M6860 9133 c33 -43 70 -103 70 -113 0 -6 5 -10 10 -10 6 0 10 -4 10
-9 0 -5 23 -49 51 -98 57 -98 211 -398 248 -483 106 -245 152 -360 143 -360
-4 0 -2 -4 3 -8 9 -6 49 -108 59 -152 2 -8 11 -35 20 -60 9 -25 19 -54 21 -65
3 -11 9 -31 14 -45 9 -22 45 -152 56 -198 3 -9 15 -57 28 -107 13 -49 25 -94
26 -100 1 -5 4 -19 6 -30 3 -11 7 -33 10 -50 12 -60 17 -90 19 -100 1 -5 4
-14 7 -20 4 -5 5 -20 4 -32 -1 -13 1 -23 4 -23 3 0 7 -12 7 -27 1 -16 4 -37 7
-48 2 -11 10 -60 17 -110 6 -49 14 -101 16 -115 3 -14 7 -52 10 -85 2 -33 7
-76 9 -94 7 -44 15 -163 19 -267 2 -45 7 -87 11 -94 5 -8 4 -11 -2 -7 -7 4 -8
-7 -4 -31 8 -50 6 -316 -3 -330 -4 -7 -2 -12 4 -12 6 0 8 -5 4 -12 -4 -7 -9
-44 -10 -83 -1 -71 -11 -208 -20 -280 -2 -22 -7 -62 -9 -90 -6 -66 -13 -124
-20 -155 -3 -14 -8 -47 -11 -75 -8 -63 -10 -74 -18 -105 -3 -14 -7 -41 -9 -60
-2 -20 -7 -41 -11 -48 -4 -7 -5 -12 -3 -12 2 0 -2 -26 -10 -58 -8 -31 -15 -66
-17 -77 -3 -16 -28 -124 -51 -215 -2 -8 -16 -55 -30 -105 -14 -49 -27 -97 -29
-105 -2 -8 -12 -37 -21 -64 -9 -26 -18 -56 -20 -65 -4 -20 -81 -234 -100 -276
-7 -16 -19 -47 -26 -68 -15 -43 -24 -32 96 -123 33 -25 67 -51 75 -57 8 -7 51
-37 95 -67 44 -30 82 -58 83 -62 2 -5 8 -8 13 -8 6 0 37 -18 70 -40 33 -22 65
-40 70 -40 5 0 9 -4 9 -8 0 -5 16 -14 35 -22 19 -8 35 -16 35 -20 0 -3 24 -18
54 -33 48 -24 86 -28 86 -8 0 6 94 70 175 118 21 13 127 66 135 68 3 1 14 5
25 10 111 46 263 87 374 102 31 4 117 7 191 8 165 0 239 -9 383 -46 140 -35
308 -109 414 -181 23 -15 44 -28 47 -28 3 0 14 -6 23 -14 122 -99 158 -131
216 -191 54 -56 67 -65 63 -45 -5 23 -8 49 -21 150 -3 19 -7 46 -9 60 -2 14
-7 48 -11 75 -3 28 -8 57 -10 65 -2 8 -7 38 -11 65 -3 28 -8 52 -9 55 -2 3 -6
25 -10 50 -4 25 -8 47 -11 51 -2 3 -6 24 -9 45 -2 21 -7 49 -10 61 -3 13 -7
33 -10 45 -3 13 -10 48 -17 78 -6 30 -12 57 -13 60 -5 26 -19 86 -20 90 -2 8
-15 64 -20 85 -2 11 -11 47 -20 80 -8 33 -17 67 -19 75 -27 106 -41 155 -57
210 -11 36 -24 79 -28 95 -5 17 -24 77 -42 135 -18 58 -34 107 -34 110 -1 3
-5 12 -8 20 -4 8 -17 49 -31 90 -13 41 -38 113 -56 160 -17 47 -36 99 -42 115
-17 50 -101 259 -109 275 -4 8 -29 65 -55 125 -80 190 -263 571 -311 648 -13
20 -21 37 -17 37 3 0 -3 12 -13 28 -10 15 -28 45 -38 67 -11 22 -24 45 -30 51
-5 6 -21 34 -34 62 -14 29 -28 52 -33 52 -4 0 -8 5 -8 11 0 6 -21 45 -46 87
-100 165 -208 338 -218 348 -6 6 -20 27 -31 47 -11 20 -23 37 -27 37 -5 0 -8
7 -8 15 0 8 -4 15 -10 15 -5 0 -10 7 -10 15 0 8 -4 15 -10 15 -5 0 -10 5 -10
10 0 6 -4 16 -10 23 -44 54 -60 76 -60 82 0 3 -6 13 -12 20 -20 22 -31 37 -63
85 -16 25 -32 47 -36 50 -3 3 -18 23 -35 45 -16 22 -37 49 -46 59 -10 11 -18
23 -18 26 0 4 -9 18 -21 31 -11 13 -33 39 -47 58 -15 19 -37 45 -49 59 -13 14
-23 28 -23 31 0 4 -15 23 -32 42 -18 20 -49 55 -68 79 -57 71 -144 171 -269
309 -145 162 -544 555 -681 671 -14 12 -52 45 -84 73 -32 29 -70 61 -83 72
-14 11 -37 30 -52 42 -36 31 -47 29 -21 -4z"/>
<path d="M6556 9013 c1 -21 3 -51 4 -68 3 -46 -8 -179 -20 -249 -14 -77 -57
-240 -76 -286 -34 -81 -131 -267 -164 -313 -50 -71 -157 -194 -204 -236 -22
-20 -48 -44 -58 -53 -30 -29 -166 -128 -177 -128 -5 0 -17 -7 -25 -16 -9 -8
-63 -37 -121 -64 -87 -41 -105 -54 -106 -72 -1 -32 2 -233 5 -288 1 -25 6 -51
10 -58 4 -7 2 -12 -4 -12 -6 0 -9 -4 -6 -8 3 -5 8 -42 11 -83 3 -41 8 -90 11
-109 3 -19 7 -51 9 -70 2 -19 5 -48 8 -65 3 -16 8 -50 12 -75 3 -25 8 -58 12
-75 3 -16 7 -39 8 -49 1 -16 29 -29 141 -66 143 -48 272 -103 357 -152 26 -15
50 -28 53 -28 3 0 25 -13 49 -30 24 -16 46 -30 50 -30 3 0 11 -4 18 -10 41
-34 109 -80 116 -80 5 0 11 -3 13 -7 2 -5 42 -40 89 -80 99 -82 200 -185 279
-282 19 -24 40 -48 45 -55 27 -29 128 -182 163 -246 116 -211 209 -448 241
-615 19 -99 22 -108 28 -101 4 4 8 12 9 19 35 177 43 221 39 225 -3 3 -1 10 4
16 5 6 12 31 15 56 7 62 15 119 22 160 7 42 12 84 19 165 12 124 14 154 19
288 3 76 8 142 11 147 3 5 1 11 -5 15 -6 4 -7 13 -2 23 9 19 7 105 -3 121 -3
6 -2 11 3 11 5 0 8 11 6 25 -1 14 -5 92 -9 174 -3 83 -8 160 -10 173 -2 13 -7
57 -10 98 -3 41 -7 87 -10 103 -5 24 -7 43 -19 142 -6 53 -17 118 -32 195 -8
41 -16 86 -19 100 -27 141 -100 436 -115 462 -6 10 -10 24 -10 31 0 27 -113
358 -136 400 -9 16 -13 31 -10 34 3 4 2 11 -4 18 -10 12 -69 151 -74 171 -1 7
-7 18 -13 25 -6 8 -14 25 -18 39 -9 28 -146 304 -194 390 -17 30 -35 64 -41
75 -5 11 -14 27 -19 35 -6 8 -40 65 -77 125 -85 140 -91 147 -88 98z"/>
<path d="M4915 6372 c-3 -3 -11 -7 -18 -8 -7 -1 -34 -4 -62 -8 -69 -10 -83
-12 -140 -26 -27 -6 -57 -13 -65 -15 -42 -10 -160 -50 -207 -70 -29 -13 -53
-21 -53 -17 0 4 -4 3 -8 -3 -4 -5 -49 -30 -99 -55 -51 -24 -93 -47 -93 -50 0
-3 -18 -13 -40 -24 -103 -49 -337 -251 -455 -391 -32 -38 -61 -72 -64 -75 -17
-14 -141 -214 -172 -275 -18 -38 -37 -71 -41 -73 -5 -2 -8 -8 -8 -14 0 -9 -13
-43 -41 -103 -5 -11 -11 -31 -14 -44 -2 -12 -8 -28 -13 -35 -5 -6 -13 -24 -17
-41 -5 -16 -9 -34 -11 -40 -6 -20 -15 -61 -20 -85 -2 -14 -7 -32 -10 -40 -7
-17 -11 -40 -18 -90 -3 -19 -8 -50 -11 -68 -4 -18 -7 -59 -9 -92 -1 -33 -5
-63 -9 -66 -4 -4 -2 -13 4 -21 6 -7 8 -13 3 -13 -5 0 -8 -35 -7 -77 1 -43 3
-78 4 -78 0 0 3 -27 5 -60 7 -121 41 -311 62 -352 6 -11 9 -22 7 -25 -5 -4 29
-108 56 -173 7 -16 13 -32 14 -35 15 -45 91 -198 110 -220 6 -8 15 -22 18 -32
3 -9 27 -47 53 -85 191 -277 434 -491 726 -638 59 -30 115 -55 125 -57 10 -2
20 -6 23 -9 9 -11 118 -48 124 -42 3 4 6 1 6 -6 0 -7 7 -11 15 -8 8 4 17 2 20
-4 4 -5 12 -9 18 -8 7 1 19 -1 27 -4 15 -7 85 -24 130 -32 101 -19 144 -25
235 -30 39 -2 72 -4 75 -5 13 -5 146 -5 155 -1 5 3 30 6 55 7 59 2 195 19 195
24 0 1 9 3 20 5 131 19 320 80 470 152 60 28 249 138 272 158 14 12 22 18 83
65 82 64 197 173 270 256 68 77 201 269 193 278 -4 3 -2 6 3 6 6 0 16 16 24
35 8 19 17 35 21 35 7 0 22 39 20 53 -1 4 4 7 9 7 6 0 10 4 10 10 0 5 11 34
25 64 14 30 25 61 25 69 0 7 3 17 7 21 8 8 32 72 39 105 3 13 9 32 15 43 5 10
8 18 5 18 -3 0 0 15 5 33 6 17 12 41 14 52 13 59 16 73 22 110 3 22 6 50 7 63
0 12 2 22 6 22 14 0 12 384 -4 460 -2 14 -7 48 -11 75 -3 28 -8 57 -10 65 -2
8 -7 26 -9 40 -3 14 -10 45 -17 70 -6 25 -12 53 -14 63 -2 9 -7 23 -12 30 -4
6 -8 18 -9 25 -2 8 -6 21 -10 30 -4 9 -8 24 -10 32 -2 8 -7 23 -12 35 -30 63
-52 116 -52 125 0 5 -5 10 -12 10 -6 0 -9 3 -5 6 3 3 -4 23 -17 43 -12 20 -29
51 -37 69 -8 17 -17 32 -21 32 -5 0 -8 4 -8 9 0 12 -61 105 -72 109 -4 2 -8
10 -8 18 0 8 -3 14 -8 14 -4 0 -14 11 -22 24 -33 53 -165 196 -255 276 -70 61
-143 120 -149 120 -4 0 -16 9 -28 20 -12 11 -34 26 -50 32 -15 7 -28 15 -28
18 0 4 -22 17 -50 31 -27 13 -50 28 -50 32 0 5 -4 5 -10 2 -5 -3 -10 -1 -10 5
0 6 -4 8 -10 5 -5 -3 -10 -1 -10 4 0 6 -8 11 -19 11 -10 0 -24 7 -31 15 -7 8
-18 15 -24 15 -6 0 -23 6 -38 14 -37 20 -236 87 -272 93 -17 3 -33 9 -34 14
-2 5 -8 7 -12 4 -5 -3 -30 0 -57 6 -26 6 -59 12 -73 14 -14 2 -25 4 -25 5 0
10 -500 22 -510 12z"/>
<path d="M3660 6145 c-14 -8 -30 -14 -37 -15 -6 0 -22 -4 -35 -9 -13 -5 -25
-9 -28 -9 -7 -2 -169 -58 -205 -72 -16 -6 -31 -11 -32 -11 -1 0 -51 -20 -110
-45 -60 -25 -126 -53 -148 -62 -44 -17 -331 -157 -355 -172 -8 -5 -58 -33
-110 -61 -52 -29 -113 -64 -135 -78 -22 -14 -49 -30 -60 -36 -56 -31 -71 -41
-78 -52 -4 -7 -13 -13 -18 -13 -13 0 -103 -60 -107 -72 -2 -4 -8 -8 -13 -8 -9
0 -55 -30 -86 -55 -6 -5 -37 -28 -67 -49 -31 -22 -56 -43 -56 -48 0 -5 -5 -6
-10 -3 -6 3 -13 -1 -16 -9 -3 -9 -12 -16 -19 -16 -7 0 -15 -3 -17 -8 -2 -4
-32 -30 -67 -57 -36 -28 -72 -57 -81 -65 -9 -8 -36 -32 -60 -53 -158 -136
-330 -303 -458 -443 -117 -128 -127 -139 -167 -189 -22 -27 -49 -58 -60 -70
-11 -11 -20 -22 -20 -25 0 -8 -68 -94 -77 -98 -5 -2 -8 -10 -8 -17 0 -7 -4
-15 -9 -17 -19 -7 -239 -330 -323 -472 -18 -32 -44 -76 -56 -98 -13 -22 -20
-38 -15 -36 139 69 298 127 393 143 38 6 71 12 110 21 14 3 88 7 165 8 197 5
352 -19 520 -81 39 -14 80 -27 93 -30 12 -3 22 -9 22 -14 0 -5 6 -9 14 -9 17
0 170 -80 174 -92 2 -4 10 -8 18 -8 8 0 14 -4 14 -10 0 -5 7 -10 15 -10 8 0
15 -4 15 -8 0 -4 13 -15 28 -24 15 -9 43 -30 62 -47 41 -36 47 -37 80 -11 14
11 28 20 33 20 8 0 238 142 273 169 12 9 32 23 44 31 12 8 42 30 66 48 23 17
48 32 53 32 6 0 11 4 11 9 0 5 15 19 33 30 17 11 44 31 59 43 58 50 75 64 121
101 26 21 45 42 43 46 -9 14 -45 234 -52 316 -11 133 -6 388 10 470 2 11 7 42
10 68 4 27 10 59 12 70 3 12 7 36 10 52 6 34 38 147 61 215 8 25 16 50 17 55
4 13 15 44 26 70 5 11 19 45 31 75 13 30 33 73 44 95 77 142 111 202 122 213
7 7 13 19 13 26 0 6 9 18 20 26 11 8 20 18 20 23 0 7 45 72 60 87 3 3 18 23
35 45 16 22 84 95 150 163 66 68 122 125 124 128 8 8 -4 3 -29 -11z"/>
<path d="M3015 3635 c-22 -19 -48 -37 -57 -41 -10 -3 -18 -9 -18 -12 0 -4 -25
-25 -56 -47 -30 -22 -65 -48 -76 -57 -12 -10 -24 -18 -28 -18 -3 0 -15 -8 -26
-17 -17 -16 -112 -82 -156 -108 -9 -5 -57 -34 -105 -64 -100 -61 -131 -79
-223 -129 -36 -19 -71 -39 -77 -44 -7 -6 -13 -7 -13 -3 0 4 -6 2 -14 -4 -12
-10 -28 1 -88 61 -40 40 -91 87 -112 103 -36 28 -191 130 -191 126 0 -1 -31
12 -69 29 -38 18 -77 33 -85 35 -9 2 -32 9 -51 15 -19 6 -46 13 -60 16 -14 2
-32 7 -40 11 -17 7 -39 10 -92 14 -21 2 -38 5 -38 8 0 12 -282 0 -340 -14 -50
-12 -121 -26 -123 -23 -2 2 -10 -2 -18 -8 -8 -6 -26 -14 -40 -17 -14 -4 -52
-19 -85 -34 -32 -14 -61 -27 -64 -27 -16 -3 -180 -109 -225 -146 -35 -29 -151
-146 -179 -180 -37 -47 -106 -154 -106 -167 0 -7 -4 -13 -9 -13 -18 0 -109
-242 -126 -335 -3 -16 -9 -48 -13 -70 -19 -108 -3 -393 27 -485 5 -14 14 -45
21 -70 17 -60 104 -242 141 -294 70 -99 77 -107 147 -180 57 -60 175 -156 191
-156 6 0 11 -4 11 -8 0 -8 40 -32 141 -83 64 -32 198 -79 227 -79 10 0 22 -3
26 -7 3 -4 14 -8 24 -10 52 -9 103 -15 152 -18 30 -2 57 -5 60 -5 19 -6 173 5
235 16 22 4 47 8 55 9 9 0 20 4 26 8 6 3 25 9 43 12 45 8 144 46 227 88 227
114 409 296 528 526 26 50 44 91 41 91 -4 0 1 7 9 16 9 8 17 22 17 30 2 16 3
23 11 44 13 32 20 56 24 75 29 147 32 180 29 319 -2 83 -5 166 -8 184 -4 29
-1 36 27 52 17 10 36 24 43 29 7 6 15 11 17 11 3 0 29 15 59 33 29 17 61 37
72 44 174 107 664 341 679 325 3 -3 6 0 6 6 0 7 8 12 18 13 9 0 38 10 64 22
l46 22 -89 135 c-49 74 -92 140 -97 145 -4 6 -11 17 -15 25 -4 8 -18 33 -32
55 -13 22 -52 88 -85 148 -34 59 -64 107 -68 107 -4 0 -25 -16 -47 -35z"/>
<path d="M7141 3517 c-61 -125 -120 -230 -133 -235 -4 -2 -8 -10 -8 -18 0 -7
-7 -22 -15 -31 -8 -10 -43 -57 -78 -104 l-64 -86 121 -48 c171 -68 410 -181
541 -256 22 -12 54 -29 70 -37 17 -9 53 -31 82 -49 29 -18 57 -33 63 -33 5 0
10 -4 10 -9 0 -5 9 -13 20 -16 37 -12 49 -32 40 -67 -13 -46 -21 -95 -27 -148
-7 -71 -10 -244 -4 -254 2 -6 5 -24 7 -41 1 -18 5 -51 9 -73 4 -23 7 -45 7
-49 1 -21 73 -214 100 -267 50 -101 134 -219 210 -299 75 -77 197 -177 217
-177 6 0 11 -4 11 -8 0 -4 42 -29 93 -54 98 -50 167 -80 167 -73 0 2 16 -3 35
-11 19 -8 37 -14 40 -14 3 0 10 -2 17 -5 75 -25 446 -45 473 -25 6 4 17 7 25
8 46 0 215 47 238 65 6 5 12 7 12 3 0 -4 13 0 30 9 16 8 33 16 37 17 5 1 30
14 56 30 26 15 50 28 53 28 4 0 42 26 112 77 13 9 33 25 45 36 12 10 31 27 42
36 85 71 203 228 267 354 31 62 96 249 103 295 2 15 7 45 12 67 4 22 7 105 7
185 0 195 -32 342 -105 496 -16 34 -29 65 -29 68 0 4 -5 12 -10 19 -6 7 -29
41 -52 77 -42 67 -109 150 -165 204 -48 48 -92 86 -98 86 -3 0 -18 11 -33 25
-15 14 -39 31 -54 38 -16 6 -28 15 -28 19 0 5 -7 8 -15 8 -8 0 -15 5 -15 10 0
6 -4 10 -10 10 -5 0 -44 17 -87 38 -43 21 -82 39 -88 40 -5 2 -39 11 -75 22
-36 10 -78 22 -95 24 -16 3 -43 8 -59 11 -56 11 -123 15 -211 14 -141 -2 -165
-4 -165 -9 0 -6 -34 -11 -77 -13 -13 -1 -23 -5 -23 -9 0 -4 -9 -8 -20 -8 -29
0 -175 -52 -246 -88 -63 -32 -148 -86 -172 -109 -7 -7 -17 -13 -21 -13 -7 0
-15 -7 -104 -89 l-47 -44 -78 39 c-42 21 -79 41 -82 44 -3 3 -25 15 -50 28
-50 25 -59 30 -143 85 -32 20 -61 37 -63 37 -10 0 -219 142 -222 151 -2 5 -8
9 -13 9 -9 0 -66 36 -79 50 -7 8 -133 105 -145 112 -6 4 -34 -43 -64 -105z"/>
<path d="M3594 2821 c-5 -4 -40 -18 -79 -31 -38 -13 -90 -33 -115 -44 -25 -11
-47 -21 -50 -21 -39 -10 -232 -100 -390 -180 -105 -54 -259 -148 -255 -155 3
-5 1 -11 -5 -15 -6 -4 -7 -11 -3 -18 14 -22 -1 -245 -23 -347 -3 -14 -7 -35
-9 -47 -3 -22 -40 -143 -52 -173 -3 -8 -7 -18 -8 -22 -2 -5 -4 -10 -5 -13 -1
-3 -3 -8 -5 -12 -13 -51 -131 -264 -164 -300 -12 -12 -21 -25 -21 -29 0 -12
-93 -118 -170 -192 -90 -87 -219 -181 -315 -229 -38 -20 -73 -40 -76 -45 -3
-5 -10 -10 -15 -9 -22 1 -54 -12 -54 -22 0 -6 -3 -8 -6 -5 -3 4 -40 -6 -82
-21 -42 -16 -79 -28 -82 -28 -3 0 -27 -5 -55 -11 -27 -7 -60 -13 -72 -15 -24
-3 -44 -17 -25 -17 6 0 35 -11 64 -24 159 -73 614 -246 703 -267 21 -6 45 -15
52 -21 7 -6 13 -7 13 -3 0 4 7 1 17 -6 9 -8 17 -12 17 -10 1 5 36 -6 242 -70
33 -11 69 -21 80 -23 10 -2 39 -10 64 -17 51 -14 63 -17 88 -23 9 -3 17 -5 17
-6 0 -1 8 -3 17 -6 10 -2 24 -6 30 -7 7 -2 31 -8 53 -12 55 -12 55 -12 58 -15
2 -2 33 -9 62 -14 11 -2 27 -6 35 -9 8 -3 29 -8 45 -11 28 -5 51 -9 103 -21
12 -3 32 -7 45 -10 12 -2 42 -9 67 -14 25 -5 83 -17 130 -26 47 -8 96 -18 110
-20 14 -3 45 -7 69 -10 24 -3 46 -7 50 -9 3 -2 33 -7 65 -10 32 -4 62 -8 65
-10 3 -2 33 -7 66 -10 33 -3 71 -8 85 -11 14 -2 50 -7 80 -10 30 -2 66 -7 80
-9 14 -3 58 -7 98 -10 40 -3 94 -8 120 -11 200 -21 417 -30 787 -30 323 0 508
5 675 20 25 2 79 6 120 10 41 3 91 8 110 10 19 3 60 7 90 10 30 3 71 7 90 10
19 2 58 7 85 10 28 4 76 10 109 15 32 5 61 9 65 8 3 -1 17 2 31 5 14 3 41 8
60 11 19 2 67 9 105 16 80 14 99 17 140 24 17 3 53 10 80 16 28 6 66 13 85 16
19 2 49 9 65 14 17 5 46 12 65 14 19 3 64 12 100 21 36 9 76 19 90 21 14 3 32
7 40 11 18 7 37 12 70 18 14 2 26 4 28 6 1 1 7 3 12 4 6 1 11 4 13 5 2 2 35 8
65 12 6 1 12 5 12 10 0 5 4 7 9 4 5 -3 25 1 45 9 20 8 36 13 36 10 0 -2 12 0
28 6 15 6 35 13 45 15 9 2 25 6 35 8 9 2 31 9 47 16 17 6 30 11 30 10 0 -1 27
6 60 16 33 10 62 19 65 19 3 1 12 4 20 8 24 9 94 31 102 32 3 0 10 3 14 7 4 5
13 8 20 8 7 0 23 4 36 9 13 5 28 10 33 11 17 5 170 61 172 64 1 1 -80 2 -180
2 -155 0 -322 7 -492 19 -58 4 -160 15 -235 25 -125 17 -145 20 -180 26 -19 4
-44 8 -55 9 -11 2 -31 5 -45 8 -14 3 -54 10 -90 17 -78 14 -149 30 -294 65
-59 15 -113 28 -120 29 -6 2 -38 11 -71 21 -33 10 -65 20 -72 21 -24 4 -300
97 -363 121 -8 4 -17 7 -20 8 -19 6 -68 27 -85 36 -12 5 -27 11 -35 13 -17 3
-71 26 -150 63 -30 14 -59 26 -65 28 -20 4 -70 30 -77 40 -4 5 -8 6 -8 2 0 -9
-61 23 -72 38 -4 6 -8 7 -8 3 0 -8 -285 137 -300 152 -3 3 -16 11 -30 18 -14
6 -32 16 -40 22 -8 5 -53 32 -100 61 -47 28 -104 64 -127 80 -23 16 -46 29
-51 29 -6 0 -12 3 -14 8 -1 4 -39 31 -83 61 -98 67 -282 204 -329 246 -13 11
-43 36 -67 55 -85 67 -111 89 -203 173 -150 137 -343 333 -463 472 -28 33 -61
71 -73 85 -12 14 -42 51 -67 82 -46 58 -64 72 -79 59z"/>
<path d="M6609 2803 c-19 -15 -39 -32 -45 -38 -33 -30 -64 -54 -109 -85 -27
-19 -55 -39 -61 -45 -6 -5 -27 -19 -47 -30 -20 -11 -37 -23 -37 -27 0 -5 -7
-8 -15 -8 -8 0 -15 -5 -15 -12 0 -6 -3 -8 -6 -5 -4 4 -19 -2 -34 -13 -57 -40
-357 -173 -415 -184 -5 -1 -14 -4 -20 -8 -5 -3 -26 -9 -45 -13 -19 -4 -41 -12
-47 -17 -7 -6 -13 -8 -13 -5 0 3 -16 1 -36 -5 -20 -5 -44 -11 -53 -13 -77 -14
-107 -18 -113 -17 -5 1 -8 -1 -8 -6 0 -4 -15 -7 -32 -8 -18 0 -76 -4 -128 -9
-141 -13 -406 -9 -490 9 -8 1 -37 6 -65 10 -51 8 -240 51 -272 63 -18 6 13
-25 90 -90 20 -18 44 -39 54 -47 9 -8 43 -36 77 -63 34 -26 78 -61 98 -78 49
-40 270 -196 330 -234 27 -17 48 -34 48 -38 0 -5 4 -6 8 -3 5 3 19 -4 30 -15
12 -10 25 -19 29 -19 5 0 15 -5 24 -12 17 -14 36 -26 108 -66 25 -14 60 -33
76 -43 26 -16 162 -87 280 -148 56 -28 176 -83 265 -120 41 -17 89 -38 105
-46 36 -17 114 -46 135 -49 8 -2 26 -8 40 -14 35 -15 94 -37 103 -38 4 -1 9
-3 12 -4 3 -1 10 -4 15 -5 6 -1 13 -4 18 -5 4 -1 10 -2 15 -1 4 0 7 -4 7 -10
0 -5 3 -8 8 -5 4 2 31 -4 60 -14 29 -10 56 -20 60 -21 18 -5 31 -8 87 -24 33
-9 74 -19 90 -22 17 -3 38 -9 48 -14 9 -5 17 -8 17 -5 0 3 15 0 33 -5 17 -6
41 -12 52 -14 59 -13 72 -16 93 -20 13 -2 31 -7 40 -9 9 -3 37 -8 61 -11 24
-3 47 -8 52 -10 4 -3 29 -8 56 -10 26 -3 59 -8 73 -11 45 -11 58 -13 119 -19
33 -3 70 -8 83 -10 13 -3 52 -8 88 -11 36 -3 83 -7 105 -9 79 -7 351 -18 430
-17 166 1 158 -4 79 43 -38 23 -78 50 -90 60 -11 11 -23 19 -26 19 -30 0 -318
298 -318 329 0 6 -4 11 -8 11 -4 0 -16 15 -27 33 -10 17 -21 34 -25 37 -12 9
-120 236 -120 252 0 9 -4 19 -9 22 -8 5 -25 64 -22 79 0 4 -3 7 -8 7 -5 0 -8
8 -6 18 1 9 -2 25 -6 34 -9 17 -13 38 -25 123 -3 22 -9 56 -13 75 -8 35 -8
323 0 349 5 17 -52 52 -256 155 -181 92 -235 116 -425 191 -184 72 -172 70
-211 38z"/>
</g>
</svg>
