<svg width="18" height="15" viewBox="0 0 18 15" fill="none" xmlns="http://www.w3.org/2000/svg">
<path fill-rule="evenodd" clip-rule="evenodd" d="M2 0C0.895431 0 0 0.895432 0 2V12.2515C0 13.356 0.89543 14.2515 2 14.2515H16C17.1046 14.2515 18 13.356 18 12.2515V2C18 0.895432 17.1046 0 16 0H2ZM16.1603 2.35077C15.9639 1.95095 15.509 1.80136 15.1443 2.01665L8.99994 5.64365L2.85553 2.01665C2.49083 1.80136 2.03599 1.95095 1.83961 2.35077C1.64323 2.75057 1.77968 3.2492 2.14439 3.46448L8.64437 7.30138C8.86635 7.43242 9.13353 7.43242 9.35551 7.30138L15.8555 3.46448C16.2202 3.2492 16.3566 2.75057 16.1603 2.35077Z" fill="white"/>
</svg>
